<svg xmlns="http://www.w3.org/2000/svg" xmlns:xlink="http://www.w3.org/1999/xlink" width="500" zoomAndPan="magnify" viewBox="0 0 375 374.999991" height="500" preserveAspectRatio="xMidYMid meet" version="1.0"><path fill="#000000" d="M 187.5 0 C 184.429688 0 181.363281 0.0742188 178.300781 0.226562 C 175.234375 0.375 172.175781 0.601562 169.121094 0.902344 C 166.066406 1.203125 163.023438 1.578125 159.988281 2.03125 C 156.953125 2.480469 153.929688 3.003906 150.921875 3.601562 C 147.910156 4.203125 144.917969 4.875 141.941406 5.617188 C 138.964844 6.363281 136.007812 7.183594 133.070312 8.074219 C 130.136719 8.964844 127.222656 9.925781 124.332031 10.960938 C 121.445312 11.996094 118.582031 13.097656 115.746094 14.273438 C 112.910156 15.445312 110.105469 16.691406 107.332031 18.003906 C 104.558594 19.3125 101.820312 20.691406 99.113281 22.140625 C 96.40625 23.585938 93.738281 25.097656 91.105469 26.675781 C 88.472656 28.253906 85.882812 29.894531 83.332031 31.597656 C 80.777344 33.304688 78.269531 35.070312 75.804688 36.898438 C 73.339844 38.726562 70.921875 40.613281 68.550781 42.558594 C 66.179688 44.507812 63.855469 46.511719 61.582031 48.570312 C 59.308594 50.632812 57.085938 52.746094 54.917969 54.917969 C 52.746094 57.085938 50.632812 59.308594 48.570312 61.582031 C 46.511719 63.855469 44.507812 66.179688 42.558594 68.550781 C 40.613281 70.921875 38.726562 73.339844 36.898438 75.804688 C 35.070312 78.269531 33.304688 80.777344 31.597656 83.332031 C 29.894531 85.882812 28.253906 88.472656 26.675781 91.105469 C 25.097656 93.738281 23.585938 96.40625 22.140625 99.113281 C 20.691406 101.820312 19.3125 104.558594 18.003906 107.332031 C 16.691406 110.105469 15.445312 112.910156 14.273438 115.746094 C 13.097656 118.582031 11.996094 121.445312 10.960938 124.332031 C 9.925781 127.222656 8.964844 130.136719 8.074219 133.070312 C 7.183594 136.007812 6.363281 138.964844 5.621094 141.941406 C 4.875 144.917969 4.203125 147.910156 3.601562 150.921875 C 3.003906 153.929688 2.480469 156.953125 2.03125 159.988281 C 1.578125 163.023438 1.203125 166.066406 0.902344 169.121094 C 0.601562 172.175781 0.375 175.234375 0.226562 178.300781 C 0.0742188 181.363281 0 184.429688 0 187.5 C 0 190.570312 0.0742188 193.636719 0.226562 196.699219 C 0.375 199.765625 0.601562 202.824219 0.902344 205.878906 C 1.203125 208.933594 1.578125 211.976562 2.03125 215.011719 C 2.480469 218.046875 3.003906 221.070312 3.601562 224.078125 C 4.203125 227.089844 4.875 230.082031 5.621094 233.058594 C 6.363281 236.035156 7.183594 238.992188 8.074219 241.929688 C 8.964844 244.863281 9.925781 247.777344 10.960938 250.667969 C 11.996094 253.554688 13.097656 256.417969 14.273438 259.253906 C 15.445312 262.089844 16.691406 264.894531 18.003906 267.667969 C 19.3125 270.441406 20.691406 273.179688 22.140625 275.886719 C 23.585938 278.59375 25.097656 281.261719 26.675781 283.894531 C 28.253906 286.527344 29.894531 289.117188 31.597656 291.667969 C 33.304688 294.222656 35.070312 296.730469 36.898438 299.195312 C 38.726562 301.660156 40.613281 304.078125 42.558594 306.449219 C 44.507812 308.820312 46.511719 311.144531 48.570312 313.417969 C 50.632812 315.691406 52.746094 317.914062 54.917969 320.082031 C 57.085938 322.253906 59.308594 324.367188 61.582031 326.429688 C 63.855469 328.488281 66.179688 330.492188 68.550781 332.4375 C 70.921875 334.386719 73.339844 336.273438 75.804688 338.101562 C 78.269531 339.929688 80.777344 341.695312 83.332031 343.402344 C 85.882812 345.105469 88.472656 346.746094 91.105469 348.324219 C 93.738281 349.902344 96.40625 351.414062 99.113281 352.859375 C 101.820312 354.308594 104.558594 355.6875 107.332031 356.996094 C 110.105469 358.308594 112.910156 359.554688 115.746094 360.726562 C 118.582031 361.902344 121.445312 363.003906 124.332031 364.039062 C 127.222656 365.074219 130.136719 366.035156 133.070312 366.925781 C 136.007812 367.816406 138.964844 368.636719 141.941406 369.378906 C 144.917969 370.125 147.910156 370.796875 150.921875 371.398438 C 153.929688 371.996094 156.953125 372.519531 159.988281 372.96875 C 163.023438 373.421875 166.066406 373.796875 169.121094 374.097656 C 172.175781 374.398438 175.234375 374.625 178.300781 374.773438 C 181.363281 374.925781 184.429688 375 187.5 375 C 190.570312 375 193.636719 374.925781 196.699219 374.773438 C 199.765625 374.625 202.824219 374.398438 205.878906 374.097656 C 208.933594 373.796875 211.976562 373.421875 215.011719 372.96875 C 218.046875 372.519531 221.070312 371.996094 224.078125 371.398438 C 227.089844 370.796875 230.082031 370.125 233.058594 369.378906 C 236.035156 368.636719 238.992188 367.816406 241.929688 366.925781 C 244.863281 366.035156 247.777344 365.074219 250.667969 364.039062 C 253.554688 363.003906 256.417969 361.902344 259.253906 360.726562 C 262.089844 359.554688 264.894531 358.308594 267.667969 356.996094 C 270.441406 355.6875 273.179688 354.308594 275.886719 352.859375 C 278.59375 351.414062 281.261719 349.902344 283.894531 348.324219 C 286.527344 346.746094 289.117188 345.105469 291.667969 343.402344 C 294.222656 341.695312 296.730469 339.929688 299.195312 338.101562 C 301.660156 336.273438 304.078125 334.386719 306.449219 332.4375 C 308.820312 330.492188 311.144531 328.488281 313.417969 326.429688 C 315.691406 324.367188 317.914062 322.253906 320.082031 320.082031 C 322.253906 317.914062 324.367188 315.691406 326.429688 313.417969 C 328.488281 311.144531 330.492188 308.820312 332.4375 306.449219 C 334.386719 304.078125 336.273438 301.660156 338.101562 299.195312 C 339.929688 296.730469 341.695312 294.222656 343.402344 291.667969 C 345.105469 289.117188 346.746094 286.527344 348.324219 283.894531 C 349.902344 281.261719 351.414062 278.59375 352.859375 275.886719 C 354.308594 273.179688 355.6875 270.441406 356.996094 267.667969 C 358.308594 264.894531 359.554688 262.089844 360.726562 259.253906 C 361.902344 256.417969 363.003906 253.554688 364.039062 250.667969 C 365.074219 247.777344 366.035156 244.863281 366.925781 241.929688 C 367.816406 238.992188 368.636719 236.035156 369.378906 233.058594 C 370.125 230.082031 370.796875 227.089844 371.398438 224.078125 C 371.996094 221.070312 372.519531 218.046875 372.96875 215.011719 C 373.421875 211.976562 373.796875 208.933594 374.097656 205.878906 C 374.398438 202.824219 374.625 199.765625 374.773438 196.699219 C 374.925781 193.636719 375 190.570312 375 187.5 C 375 184.429688 374.925781 181.363281 374.773438 178.300781 C 374.625 175.234375 374.398438 172.175781 374.097656 169.121094 C 373.796875 166.066406 373.421875 163.023438 372.96875 159.988281 C 372.519531 156.953125 371.996094 153.929688 371.398438 150.921875 C 370.796875 147.910156 370.125 144.917969 369.378906 141.941406 C 368.636719 138.964844 367.816406 136.007812 366.925781 133.070312 C 366.035156 130.136719 365.074219 127.222656 364.039062 124.332031 C 363.003906 121.445312 361.902344 118.582031 360.726562 115.746094 C 359.554688 112.910156 358.308594 110.105469 356.996094 107.332031 C 355.6875 104.558594 354.308594 101.820312 352.859375 99.113281 C 351.414062 96.40625 349.902344 93.738281 348.324219 91.105469 C 346.746094 88.472656 345.105469 85.882812 343.402344 83.332031 C 341.695312 80.777344 339.929688 78.269531 338.101562 75.804688 C 336.273438 73.339844 334.386719 70.921875 332.4375 68.550781 C 330.492188 66.179688 328.488281 63.855469 326.429688 61.582031 C 324.367188 59.308594 322.253906 57.085938 320.082031 54.917969 C 317.914062 52.746094 315.691406 50.632812 313.417969 48.570312 C 311.144531 46.511719 308.820312 44.507812 306.449219 42.558594 C 304.078125 40.613281 301.660156 38.726562 299.195312 36.898438 C 296.730469 35.070312 294.222656 33.304688 291.667969 31.597656 C 289.117188 29.894531 286.527344 28.253906 283.894531 26.675781 C 281.261719 25.097656 278.59375 23.585938 275.886719 22.140625 C 273.179688 20.691406 270.441406 19.3125 267.667969 18.003906 C 264.894531 16.691406 262.089844 15.445312 259.253906 14.273438 C 256.417969 13.097656 253.554688 11.996094 250.667969 10.960938 C 247.777344 9.925781 244.863281 8.964844 241.929688 8.074219 C 238.992188 7.183594 236.035156 6.363281 233.058594 5.617188 C 230.082031 4.875 227.089844 4.203125 224.078125 3.601562 C 221.070312 3.003906 218.046875 2.480469 215.011719 2.03125 C 211.976562 1.578125 208.933594 1.203125 205.878906 0.902344 C 202.824219 0.601562 199.765625 0.375 196.699219 0.226562 C 193.636719 0.0742188 190.570312 0 187.5 0 Z M 88.707031 93.230469 C 88.707031 92.957031 88.734375 92.683594 88.789062 92.417969 C 88.839844 92.148438 88.921875 91.886719 89.027344 91.632812 C 89.128906 91.382812 89.257812 91.140625 89.410156 90.914062 C 89.5625 90.6875 89.734375 90.476562 89.929688 90.28125 C 90.121094 90.089844 90.332031 89.917969 90.558594 89.765625 C 90.789062 89.613281 91.027344 89.484375 91.28125 89.378906 C 91.535156 89.273438 91.792969 89.195312 92.0625 89.140625 C 92.332031 89.089844 92.601562 89.0625 92.875 89.0625 L 281.4375 89.0625 C 281.710938 89.0625 281.980469 89.089844 282.25 89.140625 C 282.519531 89.195312 282.777344 89.273438 283.03125 89.378906 C 283.285156 89.484375 283.523438 89.613281 283.753906 89.765625 C 283.980469 89.917969 284.191406 90.089844 284.382812 90.28125 C 284.578125 90.476562 284.75 90.6875 284.902344 90.914062 C 285.054688 91.140625 285.183594 91.382812 285.285156 91.632812 C 285.390625 91.886719 285.46875 92.148438 285.523438 92.417969 C 285.578125 92.683594 285.605469 92.957031 285.605469 93.230469 L 285.605469 114.8125 C 285.605469 115.085938 285.578125 115.355469 285.523438 115.625 C 285.46875 115.894531 285.390625 116.152344 285.285156 116.40625 C 285.183594 116.660156 285.054688 116.898438 284.902344 117.128906 C 284.75 117.355469 284.578125 117.566406 284.382812 117.757812 C 284.191406 117.953125 283.980469 118.125 283.753906 118.277344 C 283.523438 118.429688 283.285156 118.558594 283.03125 118.660156 C 282.777344 118.765625 282.519531 118.847656 282.25 118.898438 C 281.980469 118.953125 281.710938 118.980469 281.4375 118.980469 L 92.875 118.980469 C 92.601562 118.980469 92.332031 118.953125 92.0625 118.898438 C 91.792969 118.847656 91.535156 118.765625 91.28125 118.660156 C 91.027344 118.558594 90.789062 118.429688 90.558594 118.277344 C 90.332031 118.125 90.121094 117.953125 89.929688 117.757812 C 89.734375 117.566406 89.5625 117.355469 89.410156 117.128906 C 89.257812 116.898438 89.128906 116.660156 89.027344 116.40625 C 88.921875 116.152344 88.839844 115.894531 88.789062 115.625 C 88.734375 115.355469 88.707031 115.085938 88.707031 114.8125 Z M 142.480469 219.355469 C 142.480469 219.082031 142.503906 218.808594 142.558594 218.542969 C 142.613281 218.273438 142.691406 218.011719 142.796875 217.757812 C 142.902344 217.507812 143.03125 217.265625 143.179688 217.039062 C 143.332031 216.8125 143.507812 216.601562 143.699219 216.40625 C 143.894531 216.214844 144.101562 216.042969 144.332031 215.890625 C 144.558594 215.738281 144.796875 215.609375 145.050781 215.503906 C 145.304688 215.398438 145.566406 215.320312 145.832031 215.265625 C 146.101562 215.214844 146.371094 215.1875 146.644531 215.1875 L 281.625 215.1875 C 281.898438 215.1875 282.167969 215.214844 282.4375 215.265625 C 282.707031 215.320312 282.964844 215.398438 283.21875 215.503906 C 283.472656 215.609375 283.710938 215.738281 283.941406 215.890625 C 284.167969 216.042969 284.378906 216.214844 284.570312 216.40625 C 284.765625 216.601562 284.9375 216.8125 285.089844 217.039062 C 285.242188 217.265625 285.371094 217.507812 285.472656 217.757812 C 285.578125 218.011719 285.65625 218.273438 285.710938 218.542969 C 285.765625 218.808594 285.792969 219.082031 285.792969 219.355469 L 285.792969 235.144531 C 285.792969 235.417969 285.765625 235.691406 285.710938 235.957031 C 285.65625 236.226562 285.578125 236.488281 285.472656 236.742188 C 285.371094 236.992188 285.242188 237.234375 285.089844 237.460938 C 284.9375 237.6875 284.765625 237.898438 284.570312 238.09375 C 284.378906 238.285156 284.167969 238.457031 283.941406 238.609375 C 283.710938 238.761719 283.472656 238.890625 283.21875 238.996094 C 282.964844 239.101562 282.707031 239.179688 282.4375 239.230469 C 282.167969 239.285156 281.898438 239.3125 281.625 239.3125 L 146.644531 239.3125 C 146.371094 239.3125 146.101562 239.285156 145.832031 239.230469 C 145.566406 239.179688 145.304688 239.101562 145.050781 238.996094 C 144.796875 238.890625 144.558594 238.761719 144.332031 238.609375 C 144.101562 238.457031 143.894531 238.285156 143.699219 238.09375 C 143.507812 237.898438 143.332031 237.6875 143.179688 237.460938 C 143.03125 237.234375 142.902344 236.992188 142.796875 236.742188 C 142.691406 236.488281 142.613281 236.226562 142.558594 235.957031 C 142.503906 235.691406 142.480469 235.417969 142.480469 235.144531 Z M 129.3125 190.417969 L 96.980469 237.019531 C 96.589844 237.582031 96.09375 238.019531 95.492188 238.335938 C 94.886719 238.652344 94.246094 238.8125 93.5625 238.8125 C 93.136719 238.8125 92.71875 238.75 92.3125 238.625 C 91.890625 238.492188 91.496094 238.296875 91.136719 238.039062 C 90.777344 237.78125 90.464844 237.472656 90.203125 237.113281 C 89.941406 236.753906 89.738281 236.367188 89.601562 235.945312 C 89.464844 235.523438 89.394531 235.089844 89.394531 234.644531 L 89.394531 140.355469 C 89.398438 139.910156 89.46875 139.476562 89.609375 139.054688 C 89.75 138.636719 89.953125 138.246094 90.21875 137.890625 C 90.484375 137.535156 90.796875 137.226562 91.160156 136.972656 C 91.523438 136.714844 91.914062 136.523438 92.339844 136.390625 C 92.765625 136.261719 93.199219 136.199219 93.644531 136.210938 C 94.085938 136.21875 94.519531 136.296875 94.9375 136.441406 C 95.355469 136.589844 95.742188 136.796875 96.09375 137.066406 C 96.449219 137.335938 96.75 137.65625 97 138.019531 L 129.332031 185.707031 C 129.570312 186.054688 129.75 186.429688 129.871094 186.832031 C 129.992188 187.234375 130.054688 187.644531 130.050781 188.066406 C 130.050781 188.484375 129.984375 188.894531 129.859375 189.296875 C 129.734375 189.699219 129.550781 190.070312 129.3125 190.417969 Z M 286.292969 281.769531 C 286.292969 282.042969 286.265625 282.316406 286.210938 282.582031 C 286.15625 282.851562 286.078125 283.113281 285.972656 283.367188 C 285.871094 283.617188 285.742188 283.859375 285.589844 284.085938 C 285.4375 284.3125 285.265625 284.523438 285.070312 284.71875 C 284.878906 284.910156 284.667969 285.082031 284.441406 285.234375 C 284.210938 285.386719 283.972656 285.515625 283.71875 285.621094 C 283.464844 285.726562 283.207031 285.804688 282.9375 285.855469 C 282.667969 285.910156 282.398438 285.9375 282.125 285.9375 L 93.5625 285.9375 C 93.289062 285.9375 93.019531 285.910156 92.75 285.855469 C 92.480469 285.804688 92.222656 285.726562 91.96875 285.621094 C 91.714844 285.515625 91.476562 285.386719 91.246094 285.234375 C 91.019531 285.082031 90.808594 284.910156 90.617188 284.71875 C 90.421875 284.523438 90.25 284.3125 90.097656 284.085938 C 89.945312 283.859375 89.816406 283.617188 89.714844 283.367188 C 89.609375 283.113281 89.527344 282.851562 89.476562 282.582031 C 89.421875 282.316406 89.394531 282.042969 89.394531 281.769531 L 89.394531 260.1875 C 89.394531 259.914062 89.421875 259.644531 89.476562 259.375 C 89.527344 259.105469 89.609375 258.84375 89.714844 258.59375 C 89.816406 258.339844 89.945312 258.101562 90.097656 257.871094 C 90.25 257.644531 90.421875 257.433594 90.617188 257.242188 C 90.808594 257.046875 91.019531 256.875 91.246094 256.722656 C 91.476562 256.570312 91.714844 256.441406 91.96875 256.339844 C 92.222656 256.234375 92.480469 256.152344 92.75 256.101562 C 93.019531 256.046875 93.289062 256.019531 93.5625 256.019531 L 282.125 256.019531 C 282.398438 256.019531 282.667969 256.046875 282.9375 256.101562 C 283.207031 256.152344 283.464844 256.234375 283.71875 256.339844 C 283.972656 256.441406 284.210938 256.570312 284.441406 256.722656 C 284.667969 256.875 284.878906 257.046875 285.070312 257.242188 C 285.265625 257.433594 285.4375 257.644531 285.589844 257.871094 C 285.742188 258.101562 285.871094 258.339844 285.972656 258.59375 C 286.078125 258.84375 286.15625 259.105469 286.210938 259.375 C 286.265625 259.644531 286.292969 259.914062 286.292969 260.1875 Z M 286.292969 194.269531 C 286.292969 194.542969 286.265625 194.816406 286.210938 195.082031 C 286.15625 195.351562 286.078125 195.613281 285.972656 195.867188 C 285.871094 196.117188 285.742188 196.359375 285.589844 196.585938 C 285.4375 196.8125 285.265625 197.023438 285.070312 197.21875 C 284.878906 197.410156 284.667969 197.582031 284.441406 197.734375 C 284.210938 197.886719 283.972656 198.015625 283.71875 198.121094 C 283.464844 198.226562 283.207031 198.304688 282.9375 198.355469 C 282.667969 198.410156 282.398438 198.4375 282.125 198.4375 L 147.144531 198.4375 C 146.871094 198.4375 146.601562 198.410156 146.332031 198.355469 C 146.066406 198.304688 145.804688 198.226562 145.550781 198.121094 C 145.296875 198.015625 145.058594 197.886719 144.832031 197.734375 C 144.601562 197.582031 144.394531 197.410156 144.199219 197.21875 C 144.007812 197.023438 143.832031 196.8125 143.679688 196.585938 C 143.53125 196.359375 143.402344 196.117188 143.296875 195.867188 C 143.191406 195.613281 143.113281 195.351562 143.058594 195.082031 C 143.003906 194.816406 142.980469 194.542969 142.980469 194.269531 L 142.980469 178.5 C 142.980469 178.226562 143.003906 177.957031 143.058594 177.6875 C 143.113281 177.417969 143.191406 177.160156 143.296875 176.90625 C 143.402344 176.652344 143.53125 176.414062 143.679688 176.183594 C 143.832031 175.957031 144.007812 175.746094 144.199219 175.554688 C 144.394531 175.359375 144.601562 175.1875 144.832031 175.035156 C 145.058594 174.882812 145.296875 174.753906 145.550781 174.652344 C 145.804688 174.546875 146.066406 174.464844 146.332031 174.414062 C 146.601562 174.359375 146.871094 174.332031 147.144531 174.332031 L 282.125 174.332031 C 282.398438 174.332031 282.667969 174.359375 282.9375 174.414062 C 283.207031 174.464844 283.464844 174.546875 283.71875 174.652344 C 283.972656 174.753906 284.210938 174.882812 284.441406 175.035156 C 284.667969 175.1875 284.878906 175.359375 285.070312 175.554688 C 285.265625 175.746094 285.4375 175.957031 285.589844 176.183594 C 285.742188 176.414062 285.871094 176.652344 285.972656 176.90625 C 286.078125 177.160156 286.15625 177.417969 286.210938 177.6875 C 286.265625 177.957031 286.292969 178.226562 286.292969 178.5 Z M 286.292969 154.980469 C 286.292969 155.253906 286.265625 155.523438 286.210938 155.792969 C 286.15625 156.058594 286.078125 156.320312 285.972656 156.574219 C 285.871094 156.828125 285.742188 157.066406 285.589844 157.292969 C 285.4375 157.523438 285.265625 157.730469 285.070312 157.925781 C 284.878906 158.117188 284.667969 158.292969 284.441406 158.445312 C 284.210938 158.59375 283.972656 158.722656 283.71875 158.828125 C 283.464844 158.933594 283.207031 159.011719 282.9375 159.066406 C 282.667969 159.117188 282.398438 159.144531 282.125 159.144531 L 147.144531 159.144531 C 146.871094 159.144531 146.601562 159.117188 146.332031 159.066406 C 146.066406 159.011719 145.804688 158.933594 145.550781 158.828125 C 145.296875 158.722656 145.058594 158.59375 144.832031 158.445312 C 144.601562 158.292969 144.394531 158.117188 144.199219 157.925781 C 144.007812 157.730469 143.832031 157.523438 143.679688 157.292969 C 143.53125 157.066406 143.402344 156.828125 143.296875 156.574219 C 143.191406 156.320312 143.113281 156.058594 143.058594 155.792969 C 143.003906 155.523438 142.980469 155.253906 142.980469 154.980469 L 142.980469 139.1875 C 142.980469 138.914062 143.003906 138.644531 143.058594 138.375 C 143.113281 138.105469 143.191406 137.847656 143.296875 137.59375 C 143.402344 137.339844 143.53125 137.101562 143.679688 136.871094 C 143.832031 136.644531 144.007812 136.433594 144.199219 136.242188 C 144.394531 136.046875 144.601562 135.875 144.832031 135.722656 C 145.058594 135.570312 145.296875 135.441406 145.550781 135.339844 C 145.804688 135.234375 146.066406 135.152344 146.332031 135.101562 C 146.601562 135.046875 146.871094 135.019531 147.144531 135.019531 L 282.125 135.019531 C 282.398438 135.019531 282.667969 135.046875 282.9375 135.101562 C 283.207031 135.152344 283.464844 135.234375 283.71875 135.339844 C 283.972656 135.441406 284.210938 135.570312 284.441406 135.722656 C 284.667969 135.875 284.878906 136.046875 285.070312 136.242188 C 285.265625 136.433594 285.4375 136.644531 285.589844 136.871094 C 285.742188 137.101562 285.871094 137.339844 285.972656 137.59375 C 286.078125 137.847656 286.15625 138.105469 286.210938 138.375 C 286.265625 138.644531 286.292969 138.914062 286.292969 139.1875 Z M 286.292969 154.980469 " fill-opacity="1" fill-rule="nonzero"/><path fill="#000000" d="M 97.730469 264.355469 L 277.957031 264.355469 L 277.957031 277.605469 L 97.730469 277.605469 Z M 97.730469 264.355469 " fill-opacity="1" fill-rule="nonzero"/><path fill="#000000" d="M 150.8125 223.519531 L 277.457031 223.519531 L 277.457031 230.980469 L 150.8125 230.980469 Z M 150.8125 223.519531 " fill-opacity="1" fill-rule="nonzero"/><path fill="#000000" d="M 151.3125 182.667969 L 277.957031 182.667969 L 277.957031 190.144531 L 151.3125 190.144531 Z M 151.3125 182.667969 " fill-opacity="1" fill-rule="nonzero"/><path fill="#000000" d="M 97.730469 153.9375 L 97.730469 221.3125 L 120.832031 188.019531 Z M 97.730469 153.9375 " fill-opacity="1" fill-rule="nonzero"/><path fill="#000000" d="M 97.042969 97.394531 L 277.269531 97.394531 L 277.269531 110.644531 L 97.042969 110.644531 Z M 97.042969 97.394531 " fill-opacity="1" fill-rule="nonzero"/><path fill="#000000" d="M 151.3125 143.355469 L 277.957031 143.355469 L 277.957031 150.832031 L 151.3125 150.832031 Z M 151.3125 143.355469 " fill-opacity="1" fill-rule="nonzero"/></svg>