<?xml version="1.0" encoding="utf-8"?><!-- Uploaded to: SVG Repo, www.svgrepo.com, Generator: SVG Repo Mixer Tools -->
<svg width="800px" height="800px" viewBox="0 0 24 24" fill="none" xmlns="http://www.w3.org/2000/svg">
<path fill-rule="evenodd" clip-rule="evenodd" d="M14.9703 3.3437C13.0166 2.88543 10.9834 2.88543 9.02975 3.3437C6.20842 4.00549 4.0055 6.20841 3.3437 9.02974C2.88543 10.9834 2.88543 13.0166 3.3437 14.9703C4.0055 17.7916 6.20842 19.9945 9.02975 20.6563C10.9834 21.1146 13.0166 21.1146 14.9703 20.6563C17.7916 19.9945 19.9945 17.7916 20.6563 14.9703C21.1146 13.0166 21.1146 10.9834 20.6563 9.02975C19.9945 6.20842 17.7916 4.00549 14.9703 3.3437ZM7.72959 9.23905C7.93266 8.99536 8.29484 8.96244 8.53853 9.16551L10.5279 10.8233C11.2627 11.4357 11.2627 12.5643 10.5279 13.1766L8.53853 14.8344C8.29484 15.0375 7.93266 15.0046 7.72959 14.7609C7.52651 14.5172 7.55943 14.155 7.80313 13.9519L9.7925 12.2941C9.9762 12.141 9.9762 11.8589 9.7925 11.7058L7.80313 10.048C7.55943 9.84493 7.52651 9.48275 7.72959 9.23905ZM12.4786 13.8188C12.1614 13.8188 11.9042 14.076 11.9042 14.3932C11.9042 14.7104 12.1614 14.9676 12.4786 14.9676H15.8291C16.1463 14.9676 16.4035 14.7104 16.4035 14.3932C16.4035 14.076 16.1463 13.8188 15.8291 13.8188H12.4786Z" fill="#363853"/>
</svg>