<svg xmlns="http://www.w3.org/2000/svg" xmlns:xlink="http://www.w3.org/1999/xlink" width="500" zoomAndPan="magnify" viewBox="0 0 375 374.999991" height="500" preserveAspectRatio="xMidYMid meet" version="1.0"><rect x="-37.5" width="450" fill="#ffffff" y="-37.499999" height="449.999989" fill-opacity="1"/><rect x="-37.5" width="450" fill="#ffffff" y="-37.499999" height="449.999989" fill-opacity="1"/><rect x="-37.5" width="450" fill="#ffffff" y="-37.499999" height="449.999989" fill-opacity="1"/><path fill="#000000" d="M 187.5 0 C 184.429688 0 181.363281 0.0742188 178.300781 0.226562 C 175.234375 0.375 172.175781 0.601562 169.121094 0.902344 C 166.066406 1.203125 163.023438 1.578125 159.988281 2.03125 C 156.953125 2.480469 153.929688 3.003906 150.921875 3.601562 C 147.910156 4.203125 144.917969 4.875 141.941406 5.617188 C 138.964844 6.363281 136.007812 7.183594 133.070312 8.074219 C 130.136719 8.964844 127.222656 9.925781 124.332031 10.960938 C 121.445312 11.996094 118.582031 13.097656 115.746094 14.273438 C 112.910156 15.445312 110.105469 16.691406 107.332031 18.003906 C 104.558594 19.3125 101.820312 20.691406 99.113281 22.140625 C 96.40625 23.585938 93.738281 25.097656 91.105469 26.675781 C 88.472656 28.253906 85.882812 29.894531 83.332031 31.597656 C 80.777344 33.304688 78.269531 35.070312 75.804688 36.898438 C 73.339844 38.726562 70.921875 40.613281 68.550781 42.558594 C 66.179688 44.507812 63.855469 46.511719 61.582031 48.570312 C 59.308594 50.632812 57.085938 52.746094 54.917969 54.917969 C 52.746094 57.085938 50.632812 59.308594 48.570312 61.582031 C 46.511719 63.855469 44.507812 66.179688 42.558594 68.550781 C 40.613281 70.921875 38.726562 73.339844 36.898438 75.804688 C 35.070312 78.269531 33.304688 80.777344 31.597656 83.332031 C 29.894531 85.882812 28.253906 88.472656 26.675781 91.105469 C 25.097656 93.738281 23.585938 96.40625 22.140625 99.113281 C 20.691406 101.820312 19.3125 104.558594 18.003906 107.332031 C 16.691406 110.105469 15.445312 112.910156 14.273438 115.746094 C 13.097656 118.582031 11.996094 121.445312 10.960938 124.332031 C 9.925781 127.222656 8.964844 130.136719 8.074219 133.070312 C 7.183594 136.007812 6.363281 138.964844 5.621094 141.941406 C 4.875 144.917969 4.203125 147.910156 3.601562 150.921875 C 3.003906 153.929688 2.480469 156.953125 2.03125 159.988281 C 1.578125 163.023438 1.203125 166.066406 0.902344 169.121094 C 0.601562 172.175781 0.375 175.234375 0.226562 178.300781 C 0.0742188 181.363281 0 184.429688 0 187.5 C 0 190.570312 0.0742188 193.636719 0.226562 196.699219 C 0.375 199.765625 0.601562 202.824219 0.902344 205.878906 C 1.203125 208.933594 1.578125 211.976562 2.03125 215.011719 C 2.480469 218.046875 3.003906 221.070312 3.601562 224.078125 C 4.203125 227.089844 4.875 230.082031 5.621094 233.058594 C 6.363281 236.035156 7.183594 238.992188 8.074219 241.929688 C 8.964844 244.863281 9.925781 247.777344 10.960938 250.667969 C 11.996094 253.554688 13.097656 256.417969 14.273438 259.253906 C 15.445312 262.089844 16.691406 264.894531 18.003906 267.667969 C 19.3125 270.441406 20.691406 273.179688 22.140625 275.886719 C 23.585938 278.59375 25.097656 281.261719 26.675781 283.894531 C 28.253906 286.527344 29.894531 289.117188 31.597656 291.667969 C 33.304688 294.222656 35.070312 296.730469 36.898438 299.195312 C 38.726562 301.660156 40.613281 304.078125 42.558594 306.449219 C 44.507812 308.820312 46.511719 311.144531 48.570312 313.417969 C 50.632812 315.691406 52.746094 317.914062 54.917969 320.082031 C 57.085938 322.253906 59.308594 324.367188 61.582031 326.429688 C 63.855469 328.488281 66.179688 330.492188 68.550781 332.4375 C 70.921875 334.386719 73.339844 336.273438 75.804688 338.101562 C 78.269531 339.929688 80.777344 341.695312 83.332031 343.402344 C 85.882812 345.105469 88.472656 346.746094 91.105469 348.324219 C 93.738281 349.902344 96.40625 351.414062 99.113281 352.859375 C 101.820312 354.308594 104.558594 355.6875 107.332031 356.996094 C 110.105469 358.308594 112.910156 359.554688 115.746094 360.726562 C 118.582031 361.902344 121.445312 363.003906 124.332031 364.039062 C 127.222656 365.074219 130.136719 366.035156 133.070312 366.925781 C 136.007812 367.816406 138.964844 368.636719 141.941406 369.378906 C 144.917969 370.125 147.910156 370.796875 150.921875 371.398438 C 153.929688 371.996094 156.953125 372.519531 159.988281 372.96875 C 163.023438 373.421875 166.066406 373.796875 169.121094 374.097656 C 172.175781 374.398438 175.234375 374.625 178.300781 374.773438 C 181.363281 374.925781 184.429688 375 187.5 375 C 190.570312 375 193.636719 374.925781 196.699219 374.773438 C 199.765625 374.625 202.824219 374.398438 205.878906 374.097656 C 208.933594 373.796875 211.976562 373.421875 215.011719 372.96875 C 218.046875 372.519531 221.070312 371.996094 224.078125 371.398438 C 227.089844 370.796875 230.082031 370.125 233.058594 369.378906 C 236.035156 368.636719 238.992188 367.816406 241.929688 366.925781 C 244.863281 366.035156 247.777344 365.074219 250.667969 364.039062 C 253.554688 363.003906 256.417969 361.902344 259.253906 360.726562 C 262.089844 359.554688 264.894531 358.308594 267.667969 356.996094 C 270.441406 355.6875 273.179688 354.308594 275.886719 352.859375 C 278.59375 351.414062 281.261719 349.902344 283.894531 348.324219 C 286.527344 346.746094 289.117188 345.105469 291.667969 343.402344 C 294.222656 341.695312 296.730469 339.929688 299.195312 338.101562 C 301.660156 336.273438 304.078125 334.386719 306.449219 332.4375 C 308.820312 330.492188 311.144531 328.488281 313.417969 326.429688 C 315.691406 324.367188 317.914062 322.253906 320.082031 320.082031 C 322.253906 317.914062 324.367188 315.691406 326.429688 313.417969 C 328.488281 311.144531 330.492188 308.820312 332.4375 306.449219 C 334.386719 304.078125 336.273438 301.660156 338.101562 299.195312 C 339.929688 296.730469 341.695312 294.222656 343.402344 291.667969 C 345.105469 289.117188 346.746094 286.527344 348.324219 283.894531 C 349.902344 281.261719 351.414062 278.59375 352.859375 275.886719 C 354.308594 273.179688 355.6875 270.441406 356.996094 267.667969 C 358.308594 264.894531 359.554688 262.089844 360.726562 259.253906 C 361.902344 256.417969 363.003906 253.554688 364.039062 250.667969 C 365.074219 247.777344 366.035156 244.863281 366.925781 241.929688 C 367.816406 238.992188 368.636719 236.035156 369.378906 233.058594 C 370.125 230.082031 370.796875 227.089844 371.398438 224.078125 C 371.996094 221.070312 372.519531 218.046875 372.96875 215.011719 C 373.421875 211.976562 373.796875 208.933594 374.097656 205.878906 C 374.398438 202.824219 374.625 199.765625 374.773438 196.699219 C 374.925781 193.636719 375 190.570312 375 187.5 C 375 184.429688 374.925781 181.363281 374.773438 178.300781 C 374.625 175.234375 374.398438 172.175781 374.097656 169.121094 C 373.796875 166.066406 373.421875 163.023438 372.96875 159.988281 C 372.519531 156.953125 371.996094 153.929688 371.398438 150.921875 C 370.796875 147.910156 370.125 144.917969 369.378906 141.941406 C 368.636719 138.964844 367.816406 136.007812 366.925781 133.070312 C 366.035156 130.136719 365.074219 127.222656 364.039062 124.332031 C 363.003906 121.445312 361.902344 118.582031 360.726562 115.746094 C 359.554688 112.910156 358.308594 110.105469 356.996094 107.332031 C 355.6875 104.558594 354.308594 101.820312 352.859375 99.113281 C 351.414062 96.40625 349.902344 93.738281 348.324219 91.105469 C 346.746094 88.472656 345.105469 85.882812 343.402344 83.332031 C 341.695312 80.777344 339.929688 78.269531 338.101562 75.804688 C 336.273438 73.339844 334.386719 70.921875 332.4375 68.550781 C 330.492188 66.179688 328.488281 63.855469 326.429688 61.582031 C 324.367188 59.308594 322.253906 57.085938 320.082031 54.917969 C 317.914062 52.746094 315.691406 50.632812 313.417969 48.570312 C 311.144531 46.511719 308.820312 44.507812 306.449219 42.558594 C 304.078125 40.613281 301.660156 38.726562 299.195312 36.898438 C 296.730469 35.070312 294.222656 33.304688 291.667969 31.597656 C 289.117188 29.894531 286.527344 28.253906 283.894531 26.675781 C 281.261719 25.097656 278.59375 23.585938 275.886719 22.140625 C 273.179688 20.691406 270.441406 19.3125 267.667969 18.003906 C 264.894531 16.691406 262.089844 15.445312 259.253906 14.273438 C 256.417969 13.097656 253.554688 11.996094 250.667969 10.960938 C 247.777344 9.925781 244.863281 8.964844 241.929688 8.074219 C 238.992188 7.183594 236.035156 6.363281 233.058594 5.617188 C 230.082031 4.875 227.089844 4.203125 224.078125 3.601562 C 221.070312 3.003906 218.046875 2.480469 215.011719 2.03125 C 211.976562 1.578125 208.933594 1.203125 205.878906 0.902344 C 202.824219 0.601562 199.765625 0.375 196.699219 0.226562 C 193.636719 0.0742188 190.570312 0 187.5 0 Z M 285.269531 282.875 C 285.269531 283.148438 285.242188 283.417969 285.191406 283.6875 C 285.136719 283.957031 285.058594 284.214844 284.953125 284.46875 C 284.847656 284.722656 284.71875 284.960938 284.570312 285.191406 C 284.417969 285.417969 284.242188 285.628906 284.050781 285.820312 C 283.855469 286.015625 283.648438 286.1875 283.417969 286.339844 C 283.191406 286.492188 282.953125 286.621094 282.699219 286.722656 C 282.445312 286.828125 282.183594 286.90625 281.917969 286.960938 C 281.648438 287.015625 281.378906 287.042969 281.105469 287.042969 L 92.542969 287.042969 C 92.269531 287.042969 91.996094 287.015625 91.730469 286.960938 C 91.460938 286.90625 91.199219 286.828125 90.945312 286.722656 C 90.695312 286.621094 90.453125 286.492188 90.226562 286.339844 C 90 286.1875 89.789062 286.015625 89.59375 285.820312 C 89.402344 285.628906 89.230469 285.417969 89.078125 285.191406 C 88.925781 284.960938 88.796875 284.722656 88.691406 284.46875 C 88.585938 284.214844 88.507812 283.957031 88.453125 283.6875 C 88.402344 283.417969 88.375 283.148438 88.375 282.875 L 88.375 94.3125 C 88.375 94.039062 88.402344 93.769531 88.453125 93.5 C 88.507812 93.230469 88.585938 92.972656 88.691406 92.71875 C 88.796875 92.464844 88.925781 92.226562 89.078125 91.996094 C 89.230469 91.769531 89.402344 91.558594 89.59375 91.367188 C 89.789062 91.171875 90 91 90.226562 90.847656 C 90.453125 90.695312 90.695312 90.566406 90.945312 90.464844 C 91.199219 90.359375 91.460938 90.277344 91.730469 90.226562 C 91.996094 90.171875 92.269531 90.144531 92.542969 90.144531 L 281.105469 90.144531 C 281.378906 90.144531 281.648438 90.171875 281.917969 90.226562 C 282.183594 90.277344 282.445312 90.359375 282.699219 90.464844 C 282.953125 90.566406 283.191406 90.695312 283.417969 90.847656 C 283.648438 91 283.855469 91.171875 284.050781 91.367188 C 284.242188 91.558594 284.417969 91.769531 284.570312 91.996094 C 284.71875 92.226562 284.847656 92.464844 284.953125 92.71875 C 285.058594 92.972656 285.136719 93.230469 285.191406 93.5 C 285.242188 93.769531 285.269531 94.039062 285.269531 94.3125 Z M 285.269531 282.875 " fill-opacity="1" fill-rule="nonzero"/><path fill="#000000" d="M 96.707031 278.707031 L 276.9375 278.707031 L 276.9375 98.480469 L 96.707031 98.480469 Z M 236.105469 256.25 L 191.394531 256.25 C 190.988281 256.25 190.589844 256.1875 190.199219 256.070312 C 189.808594 255.949219 189.441406 255.777344 189.101562 255.550781 C 188.761719 255.324219 188.460938 255.054688 188.203125 254.738281 C 187.941406 254.425781 187.730469 254.078125 187.574219 253.703125 C 187.414062 253.328125 187.3125 252.933594 187.269531 252.53125 C 187.226562 252.125 187.242188 251.71875 187.316406 251.320312 C 187.390625 250.917969 187.523438 250.535156 187.710938 250.171875 C 187.898438 249.808594 188.132812 249.480469 188.417969 249.1875 L 226.292969 209.980469 L 192.082031 209.980469 C 191.808594 209.980469 191.539062 209.953125 191.269531 209.898438 C 191.003906 209.84375 190.742188 209.765625 190.488281 209.660156 C 190.234375 209.558594 189.996094 209.429688 189.769531 209.277344 C 189.539062 209.125 189.332031 208.953125 189.136719 208.757812 C 188.945312 208.566406 188.769531 208.355469 188.617188 208.128906 C 188.46875 207.898438 188.339844 207.660156 188.234375 207.40625 C 188.128906 207.152344 188.050781 206.894531 187.996094 206.625 C 187.941406 206.355469 187.917969 206.085938 187.917969 205.8125 C 187.917969 205.539062 187.941406 205.269531 187.996094 205 C 188.050781 204.730469 188.128906 204.472656 188.234375 204.21875 C 188.339844 203.964844 188.46875 203.726562 188.617188 203.496094 C 188.769531 203.269531 188.945312 203.058594 189.136719 202.867188 C 189.332031 202.671875 189.539062 202.5 189.769531 202.347656 C 189.996094 202.195312 190.234375 202.066406 190.488281 201.964844 C 190.742188 201.859375 191.003906 201.777344 191.269531 201.726562 C 191.539062 201.671875 191.808594 201.644531 192.082031 201.644531 L 236.105469 201.644531 C 236.511719 201.644531 236.914062 201.703125 237.304688 201.820312 C 237.699219 201.9375 238.066406 202.109375 238.40625 202.335938 C 238.746094 202.5625 239.046875 202.832031 239.3125 203.148438 C 239.574219 203.460938 239.785156 203.808594 239.941406 204.183594 C 240.101562 204.558594 240.207031 204.953125 240.25 205.359375 C 240.292969 205.765625 240.28125 206.167969 240.207031 206.570312 C 240.128906 206.972656 240 207.359375 239.8125 207.722656 C 239.625 208.085938 239.386719 208.414062 239.105469 208.707031 L 201.230469 247.917969 L 236.105469 247.917969 C 236.378906 247.917969 236.648438 247.941406 236.917969 247.996094 C 237.183594 248.050781 237.445312 248.128906 237.699219 248.234375 C 237.953125 248.339844 238.191406 248.46875 238.417969 248.617188 C 238.644531 248.769531 238.855469 248.945312 239.050781 249.136719 C 239.242188 249.332031 239.417969 249.539062 239.570312 249.769531 C 239.71875 249.996094 239.847656 250.234375 239.953125 250.488281 C 240.058594 250.742188 240.136719 251.003906 240.191406 251.269531 C 240.242188 251.539062 240.269531 251.808594 240.269531 252.082031 C 240.269531 252.355469 240.242188 252.628906 240.191406 252.894531 C 240.136719 253.164062 240.058594 253.425781 239.953125 253.679688 C 239.847656 253.929688 239.71875 254.171875 239.570312 254.398438 C 239.417969 254.625 239.242188 254.835938 239.050781 255.03125 C 238.855469 255.222656 238.644531 255.394531 238.417969 255.546875 C 238.191406 255.699219 237.953125 255.828125 237.699219 255.933594 C 237.445312 256.039062 237.183594 256.117188 236.917969 256.167969 C 236.648438 256.222656 236.378906 256.25 236.105469 256.25 Z M 185.144531 173.417969 L 212.667969 116.105469 C 212.84375 115.730469 213.074219 115.390625 213.351562 115.082031 C 213.628906 114.777344 213.949219 114.519531 214.304688 114.304688 C 214.660156 114.09375 215.039062 113.941406 215.441406 113.839844 C 215.84375 113.742188 216.253906 113.707031 216.667969 113.730469 C 217.070312 113.742188 217.464844 113.8125 217.847656 113.941406 C 218.234375 114.070312 218.589844 114.253906 218.921875 114.484375 C 219.253906 114.71875 219.542969 114.996094 219.796875 115.3125 C 220.046875 115.628906 220.246094 115.976562 220.394531 116.355469 L 233.269531 148.8125 L 242.605469 172.332031 C 242.703125 172.585938 242.777344 172.847656 242.824219 173.117188 C 242.871094 173.386719 242.890625 173.65625 242.886719 173.929688 C 242.878906 174.199219 242.847656 174.46875 242.789062 174.734375 C 242.730469 175 242.644531 175.257812 242.535156 175.507812 C 242.425781 175.757812 242.296875 175.996094 242.140625 176.21875 C 241.984375 176.441406 241.808594 176.648438 241.613281 176.839844 C 241.414062 177.027344 241.203125 177.195312 240.972656 177.34375 C 240.746094 177.492188 240.503906 177.613281 240.25 177.714844 C 239.996094 177.8125 239.738281 177.890625 239.46875 177.9375 C 239.199219 177.988281 238.929688 178.007812 238.65625 178.003906 C 238.386719 178 238.117188 177.972656 237.847656 177.914062 C 237.582031 177.855469 237.324219 177.773438 237.074219 177.667969 C 236.824219 177.558594 236.585938 177.429688 236.363281 177.273438 C 236.136719 177.121094 235.929688 176.945312 235.738281 176.75 C 235.550781 176.558594 235.378906 176.34375 235.230469 176.117188 C 235.082031 175.890625 234.957031 175.648438 234.855469 175.394531 L 226.519531 154.5625 L 203.6875 154.167969 L 192.644531 177.082031 C 192.300781 177.808594 191.789062 178.382812 191.113281 178.8125 C 190.4375 179.242188 189.695312 179.457031 188.894531 179.457031 C 188.261719 179.453125 187.65625 179.3125 187.082031 179.042969 C 186.832031 178.921875 186.597656 178.78125 186.375 178.613281 C 186.152344 178.449219 185.949219 178.261719 185.765625 178.054688 C 185.582031 177.847656 185.417969 177.625 185.277344 177.386719 C 185.140625 177.148438 185.023438 176.898438 184.933594 176.636719 C 184.84375 176.375 184.78125 176.105469 184.742188 175.832031 C 184.707031 175.558594 184.695312 175.28125 184.714844 175.003906 C 184.734375 174.730469 184.777344 174.457031 184.851562 174.1875 C 184.925781 173.921875 185.023438 173.664062 185.144531 173.417969 Z M 111.082031 221.667969 C 111.296875 221.496094 111.523438 221.34375 111.765625 221.21875 C 112.003906 221.089844 112.257812 220.988281 112.519531 220.910156 C 112.78125 220.832031 113.046875 220.78125 113.320312 220.753906 C 113.589844 220.730469 113.863281 220.730469 114.136719 220.757812 C 114.40625 220.785156 114.671875 220.839844 114.933594 220.921875 C 115.195312 221 115.445312 221.105469 115.6875 221.238281 C 115.925781 221.367188 116.152344 221.519531 116.363281 221.691406 C 116.574219 221.867188 116.765625 222.058594 116.9375 222.269531 L 131.019531 239.582031 L 131.019531 115.917969 C 131.019531 115.644531 131.046875 115.371094 131.101562 115.105469 C 131.152344 114.835938 131.234375 114.574219 131.339844 114.320312 C 131.441406 114.070312 131.570312 113.828125 131.722656 113.601562 C 131.875 113.375 132.046875 113.164062 132.242188 112.96875 C 132.433594 112.777344 132.644531 112.605469 132.871094 112.453125 C 133.101562 112.300781 133.339844 112.171875 133.59375 112.066406 C 133.847656 111.960938 134.105469 111.882812 134.375 111.828125 C 134.644531 111.777344 134.914062 111.75 135.1875 111.75 C 135.460938 111.75 135.730469 111.777344 136 111.828125 C 136.269531 111.882812 136.527344 111.960938 136.78125 112.066406 C 137.035156 112.171875 137.273438 112.300781 137.503906 112.453125 C 137.730469 112.605469 137.941406 112.777344 138.132812 112.96875 C 138.328125 113.164062 138.5 113.375 138.652344 113.601562 C 138.804688 113.828125 138.933594 114.070312 139.035156 114.320312 C 139.140625 114.574219 139.21875 114.835938 139.273438 115.105469 C 139.328125 115.371094 139.355469 115.644531 139.355469 115.917969 L 139.355469 238.832031 L 151.417969 222.769531 C 151.582031 222.550781 151.765625 222.351562 151.96875 222.167969 C 152.171875 221.988281 152.390625 221.824219 152.628906 221.6875 C 152.863281 221.546875 153.109375 221.433594 153.367188 221.34375 C 153.625 221.25 153.890625 221.1875 154.160156 221.148438 C 154.429688 221.109375 154.703125 221.097656 154.976562 221.113281 C 155.25 221.128906 155.519531 221.167969 155.78125 221.238281 C 156.046875 221.304688 156.304688 221.398438 156.550781 221.515625 C 156.796875 221.636719 157.027344 221.777344 157.246094 221.941406 C 157.464844 222.105469 157.667969 222.289062 157.851562 222.492188 C 158.03125 222.695312 158.195312 222.914062 158.332031 223.148438 C 158.472656 223.386719 158.585938 223.632812 158.679688 223.890625 C 158.769531 224.148438 158.832031 224.410156 158.871094 224.683594 C 158.910156 224.953125 158.921875 225.226562 158.910156 225.5 C 158.894531 225.769531 158.851562 226.039062 158.785156 226.304688 C 158.71875 226.570312 158.625 226.824219 158.507812 227.074219 C 158.386719 227.320312 158.246094 227.550781 158.082031 227.769531 L 138.519531 253.8125 L 138.375 253.980469 C 138.253906 254.128906 138.121094 254.265625 137.980469 254.394531 L 137.707031 254.605469 C 137.570312 254.726562 137.414062 254.832031 137.25 254.917969 L 136.980469 255.082031 C 136.796875 255.164062 136.609375 255.226562 136.417969 255.269531 L 136.125 255.375 L 135.1875 255.375 C 134.894531 255.40625 134.605469 255.40625 134.3125 255.375 L 134.082031 255.375 C 133.875 255.328125 133.671875 255.257812 133.480469 255.167969 L 133.207031 255.019531 C 133.039062 254.9375 132.878906 254.839844 132.730469 254.730469 L 132.480469 254.519531 L 132.082031 254.144531 L 131.957031 254.019531 L 110.417969 227.542969 C 110.246094 227.328125 110.09375 227.097656 109.96875 226.855469 C 109.84375 226.609375 109.742188 226.355469 109.664062 226.09375 C 109.589844 225.828125 109.539062 225.558594 109.515625 225.285156 C 109.492188 225.011719 109.496094 224.738281 109.527344 224.464844 C 109.558594 224.191406 109.617188 223.925781 109.699219 223.664062 C 109.785156 223.402344 109.890625 223.152344 110.027344 222.910156 C 110.160156 222.671875 110.316406 222.445312 110.492188 222.234375 C 110.671875 222.027344 110.867188 221.835938 111.082031 221.667969 Z M 111.082031 221.667969 " fill-opacity="1" fill-rule="nonzero"/><path fill="#000000" d="M 216.0625 128.292969 L 207.644531 145.792969 L 223.125 146.082031 Z M 216.0625 128.292969 " fill-opacity="1" fill-rule="nonzero"/></svg>