<svg xmlns="http://www.w3.org/2000/svg" xmlns:xlink="http://www.w3.org/1999/xlink" width="500" zoomAndPan="magnify" viewBox="0 0 375 374.999991" height="500" preserveAspectRatio="xMidYMid meet" version="1.0"><defs><clipPath id="c801bce409"><path d="M 0 0 L 375 0 L 375 368.25 L 0 368.25 Z M 0 0 " clip-rule="nonzero"/></clipPath></defs><rect x="-37.5" width="450" fill="#ffffff" y="-37.499999" height="449.999989" fill-opacity="1"/><rect x="-37.5" width="450" fill="#ffffff" y="-37.499999" height="449.999989" fill-opacity="1"/><rect x="-37.5" width="450" fill="#ffffff" y="-37.499999" height="449.999989" fill-opacity="1"/><g clip-path="url(#c801bce409)"><path fill="#000000" d="M 34.757812 125.066406 L 76.414062 125.066406 L 76.414062 138.960938 L 34.757812 138.960938 Z M 90.300781 138.960938 L 131.957031 138.960938 L 131.957031 125.066406 L 90.300781 125.066406 Z M 34.757812 55.585938 L 76.414062 55.585938 L 76.414062 41.6875 L 34.757812 41.6875 Z M 90.300781 55.585938 L 131.957031 55.585938 L 131.957031 41.6875 L 90.300781 41.6875 Z M 374.957031 208.445312 L 374.957031 347.40625 C 374.957031 358.871094 365.582031 368.25 354.128906 368.25 L 229.15625 368.25 C 217.703125 368.25 208.328125 358.871094 208.328125 347.40625 L 208.328125 326.5625 L 131.957031 326.5625 C 128.140625 326.5625 125.015625 323.433594 125.015625 319.613281 L 125.015625 291.820312 L 83.359375 291.820312 C 79.539062 291.820312 76.414062 288.695312 76.414062 284.871094 L 76.414062 180.652344 L 20.871094 180.652344 C 9.417969 180.652344 0.0429688 171.269531 0.0429688 159.804688 L 0.0429688 20.84375 C 0.0429688 9.378906 9.417969 0 20.871094 0 L 145.84375 0 C 157.296875 0 166.671875 9.378906 166.671875 20.84375 L 166.671875 41.6875 L 243.042969 41.6875 C 246.859375 41.6875 249.984375 44.816406 249.984375 48.636719 L 249.984375 83.378906 L 291.640625 83.378906 C 295.460938 83.378906 298.585938 86.503906 298.585938 90.324219 L 298.585938 187.597656 L 354.128906 187.597656 C 365.582031 187.597656 374.957031 196.980469 374.957031 208.445312 Z M 354.128906 201.496094 L 229.15625 201.496094 C 225.339844 201.496094 222.214844 204.621094 222.214844 208.445312 L 222.214844 270.976562 L 361.070312 270.976562 L 361.070312 208.445312 C 361.070312 204.621094 357.945312 201.496094 354.128906 201.496094 Z M 166.671875 55.585938 L 166.671875 125.066406 L 236.101562 125.066406 L 236.101562 55.585938 Z M 13.929688 83.378906 L 152.785156 83.378906 L 152.785156 20.84375 C 152.785156 17.023438 149.660156 13.894531 145.84375 13.894531 L 20.871094 13.894531 C 17.054688 13.894531 13.929688 17.023438 13.929688 20.84375 Z M 20.871094 166.753906 L 145.84375 166.753906 C 149.660156 166.753906 152.785156 163.628906 152.785156 159.804688 L 152.785156 97.273438 L 13.929688 97.273438 L 13.929688 159.804688 C 13.929688 163.628906 17.054688 166.753906 20.871094 166.753906 Z M 131.957031 229.289062 L 208.328125 229.289062 L 208.328125 208.445312 C 208.328125 196.980469 217.703125 187.597656 229.15625 187.597656 L 284.699219 187.597656 L 284.699219 97.273438 L 249.984375 97.273438 L 249.984375 132.015625 C 249.984375 135.835938 246.859375 138.960938 243.042969 138.960938 L 166.671875 138.960938 L 166.671875 159.804688 C 166.671875 171.269531 157.296875 180.652344 145.84375 180.652344 L 90.300781 180.652344 L 90.300781 277.925781 L 125.015625 277.925781 L 125.015625 236.234375 C 125.015625 232.414062 128.140625 229.289062 131.957031 229.289062 Z M 208.328125 312.664062 L 208.328125 243.183594 L 138.898438 243.183594 L 138.898438 312.664062 Z M 361.070312 284.871094 L 222.214844 284.871094 L 222.214844 347.40625 C 222.214844 351.226562 225.339844 354.355469 229.15625 354.355469 L 354.128906 354.355469 C 357.945312 354.355469 361.070312 351.226562 361.070312 347.40625 Z M 284.699219 229.289062 L 243.042969 229.289062 L 243.042969 243.183594 L 284.699219 243.183594 Z M 340.242188 229.289062 L 298.585938 229.289062 L 298.585938 243.183594 L 340.242188 243.183594 Z M 284.699219 312.664062 L 243.042969 312.664062 L 243.042969 326.5625 L 284.699219 326.5625 Z M 340.242188 312.664062 L 298.585938 312.664062 L 298.585938 326.5625 L 340.242188 326.5625 Z M 340.242188 312.664062 " fill-opacity="1" fill-rule="nonzero"/></g></svg>