<svg xmlns="http://www.w3.org/2000/svg" xmlns:xlink="http://www.w3.org/1999/xlink" width="500" zoomAndPan="magnify" viewBox="0 0 375 374.999991" height="500" preserveAspectRatio="xMidYMid meet" version="1.0"><rect x="-37.5" width="450" fill="#ffffff" y="-37.499999" height="449.999989" fill-opacity="1"/><rect x="-37.5" width="450" fill="#ffffff" y="-37.499999" height="449.999989" fill-opacity="1"/><rect x="-37.5" width="450" fill="#ffffff" y="-37.499999" height="449.999989" fill-opacity="1"/><path fill="#000000" d="M 367.5 180 L 315 180 L 315 142.5 C 315 142.007812 314.953125 141.519531 314.855469 141.035156 C 314.761719 140.554688 314.617188 140.085938 314.429688 139.628906 C 314.242188 139.175781 314.007812 138.742188 313.734375 138.332031 C 313.460938 137.921875 313.152344 137.542969 312.804688 137.195312 C 312.453125 136.847656 312.078125 136.539062 311.667969 136.265625 C 311.257812 135.992188 310.824219 135.757812 310.371094 135.570312 C 309.914062 135.382812 309.445312 135.238281 308.964844 135.144531 C 308.480469 135.046875 307.992188 135 307.5 135 L 249.269531 135 L 195 107.863281 L 195 75 L 262.5 75 C 262.992188 75 263.480469 74.953125 263.964844 74.855469 C 264.445312 74.761719 264.914062 74.617188 265.371094 74.429688 C 265.824219 74.242188 266.257812 74.007812 266.667969 73.734375 C 267.078125 73.460938 267.453125 73.152344 267.804688 72.804688 C 268.152344 72.453125 268.460938 72.078125 268.734375 71.667969 C 269.007812 71.257812 269.242188 70.824219 269.429688 70.371094 C 269.617188 69.914062 269.757812 69.445312 269.855469 68.964844 C 269.953125 68.480469 270 67.992188 270 67.5 L 270 7.5 C 270 7.007812 269.953125 6.519531 269.855469 6.035156 C 269.757812 5.554688 269.617188 5.085938 269.429688 4.628906 C 269.242188 4.175781 269.007812 3.742188 268.734375 3.332031 C 268.460938 2.921875 268.152344 2.542969 267.804688 2.195312 C 267.453125 1.847656 267.078125 1.539062 266.667969 1.265625 C 266.257812 0.992188 265.824219 0.757812 265.371094 0.570312 C 264.914062 0.382812 264.445312 0.238281 263.964844 0.144531 C 263.480469 0.046875 262.992188 0 262.5 0 L 112.5 0 C 112.007812 0 111.519531 0.046875 111.035156 0.144531 C 110.554688 0.238281 110.085938 0.382812 109.628906 0.570312 C 109.175781 0.757812 108.742188 0.992188 108.332031 1.265625 C 107.921875 1.539062 107.542969 1.847656 107.195312 2.195312 C 106.847656 2.542969 106.539062 2.921875 106.265625 3.332031 C 105.992188 3.742188 105.757812 4.175781 105.570312 4.628906 C 105.382812 5.085938 105.238281 5.554688 105.144531 6.035156 C 105.046875 6.519531 105 7.007812 105 7.5 L 105 67.5 C 105 67.992188 105.046875 68.480469 105.144531 68.964844 C 105.238281 69.445312 105.382812 69.914062 105.570312 70.371094 C 105.757812 70.824219 105.992188 71.257812 106.265625 71.667969 C 106.539062 72.078125 106.847656 72.453125 107.195312 72.804688 C 107.542969 73.152344 107.921875 73.460938 108.332031 73.734375 C 108.742188 74.007812 109.175781 74.242188 109.628906 74.429688 C 110.085938 74.617188 110.554688 74.761719 111.035156 74.855469 C 111.519531 74.953125 112.007812 75 112.5 75 L 180 75 L 180 107.863281 L 125.730469 135 L 67.5 135 C 67.007812 135 66.519531 135.046875 66.035156 135.144531 C 65.554688 135.238281 65.085938 135.382812 64.628906 135.570312 C 64.175781 135.757812 63.742188 135.992188 63.332031 136.265625 C 62.921875 136.539062 62.542969 136.847656 62.195312 137.195312 C 61.847656 137.542969 61.539062 137.921875 61.265625 138.332031 C 60.992188 138.742188 60.757812 139.175781 60.570312 139.628906 C 60.382812 140.085938 60.238281 140.554688 60.144531 141.035156 C 60.046875 141.519531 60 142.007812 60 142.5 L 60 180 L 7.5 180 C 7.007812 180 6.519531 180.046875 6.035156 180.144531 C 5.554688 180.238281 5.085938 180.382812 4.628906 180.570312 C 4.175781 180.757812 3.742188 180.992188 3.332031 181.265625 C 2.921875 181.539062 2.546875 181.847656 2.195312 182.195312 C 1.847656 182.542969 1.539062 182.921875 1.265625 183.332031 C 0.992188 183.742188 0.757812 184.175781 0.570312 184.628906 C 0.382812 185.085938 0.238281 185.554688 0.144531 186.035156 C 0.046875 186.519531 0 187.007812 0 187.5 L 0 247.5 C 0 247.992188 0.046875 248.480469 0.144531 248.964844 C 0.238281 249.445312 0.382812 249.914062 0.570312 250.371094 C 0.757812 250.824219 0.992188 251.257812 1.265625 251.667969 C 1.539062 252.078125 1.847656 252.453125 2.195312 252.804688 C 2.542969 253.152344 2.921875 253.460938 3.332031 253.734375 C 3.742188 254.007812 4.175781 254.242188 4.628906 254.429688 C 5.085938 254.617188 5.554688 254.757812 6.035156 254.855469 C 6.519531 254.953125 7.007812 255 7.5 255 L 60 255 L 60 322.5 C 60 322.992188 60.046875 323.480469 60.144531 323.964844 C 60.238281 324.445312 60.382812 324.914062 60.570312 325.371094 C 60.757812 325.824219 60.992188 326.257812 61.265625 326.667969 C 61.539062 327.078125 61.847656 327.453125 62.195312 327.804688 C 62.542969 328.152344 62.921875 328.460938 63.332031 328.734375 C 63.742188 329.007812 64.175781 329.242188 64.628906 329.429688 C 65.085938 329.617188 65.554688 329.757812 66.035156 329.855469 C 66.519531 329.953125 67.007812 330 67.5 330 L 135.765625 330 C 135.980469 331.546875 136.261719 333.078125 136.613281 334.601562 C 136.964844 336.121094 137.386719 337.621094 137.871094 339.105469 C 138.359375 340.589844 138.910156 342.046875 139.527344 343.480469 C 140.144531 344.914062 140.824219 346.316406 141.566406 347.691406 C 142.308594 349.0625 143.113281 350.398438 143.976562 351.699219 C 144.835938 353 145.757812 354.261719 146.730469 355.480469 C 147.707031 356.699219 148.734375 357.871094 149.816406 358.996094 C 150.898438 360.121094 152.027344 361.199219 153.203125 362.222656 C 154.378906 363.25 155.601562 364.21875 156.863281 365.132812 C 158.128906 366.050781 159.429688 366.90625 160.769531 367.707031 C 162.113281 368.503906 163.484375 369.242188 164.894531 369.917969 C 166.300781 370.59375 167.734375 371.207031 169.195312 371.753906 C 170.65625 372.300781 172.140625 372.78125 173.644531 373.195312 C 175.148438 373.609375 176.671875 373.957031 178.207031 374.234375 C 179.742188 374.511719 181.289062 374.722656 182.84375 374.859375 C 184.398438 375 185.953125 375.070312 187.515625 375.070312 C 189.074219 375.070312 190.632812 375 192.1875 374.859375 C 193.742188 374.722656 195.289062 374.511719 196.824219 374.234375 C 198.359375 373.957031 199.878906 373.609375 201.382812 373.195312 C 202.890625 372.78125 204.371094 372.300781 205.835938 371.753906 C 207.296875 371.207031 208.730469 370.59375 210.136719 369.917969 C 211.542969 369.242188 212.917969 368.503906 214.257812 367.707031 C 215.601562 366.90625 216.902344 366.050781 218.164062 365.132812 C 219.429688 364.21875 220.652344 363.25 221.828125 362.222656 C 223.003906 361.199219 224.132812 360.121094 225.214844 358.996094 C 226.292969 357.871094 227.324219 356.699219 228.296875 355.480469 C 229.273438 354.261719 230.191406 353 231.054688 351.699219 C 231.917969 350.398438 232.71875 349.0625 233.464844 347.691406 C 234.207031 346.316406 234.886719 344.914062 235.503906 343.480469 C 236.121094 342.046875 236.671875 340.589844 237.160156 339.105469 C 237.644531 337.621094 238.0625 336.121094 238.414062 334.601562 C 238.765625 333.078125 239.050781 331.546875 239.265625 330 L 307.5 330 C 307.992188 330 308.480469 329.953125 308.964844 329.855469 C 309.445312 329.757812 309.914062 329.617188 310.371094 329.429688 C 310.824219 329.242188 311.257812 329.007812 311.667969 328.734375 C 312.078125 328.460938 312.453125 328.152344 312.804688 327.804688 C 313.152344 327.453125 313.460938 327.078125 313.734375 326.667969 C 314.007812 326.257812 314.242188 325.824219 314.429688 325.371094 C 314.617188 324.914062 314.761719 324.445312 314.855469 323.964844 C 314.953125 323.480469 315 322.992188 315 322.5 L 315 255 L 367.5 255 C 367.992188 255 368.480469 254.953125 368.964844 254.855469 C 369.445312 254.757812 369.914062 254.617188 370.371094 254.429688 C 370.824219 254.242188 371.257812 254.007812 371.667969 253.734375 C 372.074219 253.460938 372.453125 253.152344 372.804688 252.804688 C 373.152344 252.453125 373.460938 252.078125 373.734375 251.667969 C 374.007812 251.257812 374.242188 250.824219 374.429688 250.371094 C 374.617188 249.914062 374.757812 249.445312 374.855469 248.964844 C 374.953125 248.480469 375 247.992188 375 247.5 L 375 187.5 C 375 187.007812 374.953125 186.519531 374.855469 186.035156 C 374.757812 185.554688 374.617188 185.085938 374.429688 184.628906 C 374.242188 184.175781 374.007812 183.742188 373.734375 183.332031 C 373.460938 182.921875 373.152344 182.542969 372.804688 182.195312 C 372.453125 181.847656 372.074219 181.539062 371.667969 181.265625 C 371.257812 180.992188 370.824219 180.757812 370.371094 180.570312 C 369.914062 180.382812 369.445312 180.238281 368.964844 180.144531 C 368.480469 180.046875 367.992188 180 367.5 180 Z M 120 15 L 255 15 L 255 60 L 120 60 Z M 187.5 120.886719 L 230.730469 142.5 L 187.5 164.113281 L 144.269531 142.5 Z M 15 195 L 120 195 L 120 240 L 15 240 Z M 187.5 360 C 186.273438 360 185.046875 359.941406 183.824219 359.820312 C 182.601562 359.699219 181.390625 359.519531 180.183594 359.28125 C 178.980469 359.039062 177.789062 358.742188 176.613281 358.386719 C 175.4375 358.027344 174.285156 357.617188 173.148438 357.144531 C 172.015625 356.675781 170.90625 356.152344 169.824219 355.570312 C 168.738281 354.992188 167.6875 354.363281 166.667969 353.679688 C 165.644531 352.996094 164.660156 352.265625 163.710938 351.488281 C 162.761719 350.707031 161.851562 349.886719 160.984375 349.015625 C 160.113281 348.148438 159.292969 347.238281 158.511719 346.289062 C 157.734375 345.339844 157.003906 344.355469 156.320312 343.332031 C 155.636719 342.3125 155.007812 341.261719 154.429688 340.175781 C 153.847656 339.09375 153.324219 337.984375 152.855469 336.851562 C 152.382812 335.714844 151.972656 334.5625 151.613281 333.386719 C 151.257812 332.210938 150.960938 331.019531 150.71875 329.816406 C 150.480469 328.609375 150.300781 327.398438 150.179688 326.175781 C 150.058594 324.953125 150 323.726562 150 322.5 C 150 321.273438 150.058594 320.046875 150.179688 318.824219 C 150.300781 317.601562 150.480469 316.386719 150.71875 315.183594 C 150.960938 313.980469 151.257812 312.789062 151.613281 311.613281 C 151.972656 310.4375 152.382812 309.285156 152.855469 308.148438 C 153.324219 307.015625 153.847656 305.90625 154.429688 304.824219 C 155.007812 303.738281 155.636719 302.6875 156.320312 301.667969 C 157.003906 300.644531 157.734375 299.660156 158.511719 298.710938 C 159.292969 297.761719 160.113281 296.851562 160.984375 295.984375 C 161.851562 295.113281 162.761719 294.292969 163.710938 293.511719 C 164.660156 292.734375 165.644531 292.003906 166.667969 291.320312 C 167.6875 290.636719 168.738281 290.007812 169.824219 289.429688 C 170.90625 288.847656 172.015625 288.324219 173.148438 287.855469 C 174.285156 287.382812 175.4375 286.972656 176.613281 286.613281 C 177.789062 286.257812 178.980469 285.960938 180.183594 285.71875 C 181.390625 285.480469 182.601562 285.300781 183.824219 285.179688 C 185.046875 285.058594 186.273438 285 187.5 285 C 188.726562 285 189.953125 285.058594 191.175781 285.179688 C 192.398438 285.300781 193.609375 285.480469 194.816406 285.71875 C 196.019531 285.960938 197.210938 286.257812 198.386719 286.613281 C 199.5625 286.972656 200.714844 287.382812 201.851562 287.855469 C 202.984375 288.324219 204.09375 288.847656 205.175781 289.429688 C 206.261719 290.007812 207.3125 290.636719 208.332031 291.320312 C 209.355469 292.003906 210.339844 292.734375 211.289062 293.511719 C 212.238281 294.292969 213.148438 295.113281 214.015625 295.984375 C 214.886719 296.851562 215.707031 297.761719 216.488281 298.710938 C 217.265625 299.660156 217.996094 300.644531 218.679688 301.667969 C 219.363281 302.6875 219.992188 303.738281 220.570312 304.824219 C 221.152344 305.90625 221.675781 307.015625 222.144531 308.148438 C 222.617188 309.285156 223.027344 310.4375 223.386719 311.613281 C 223.742188 312.789062 224.039062 313.980469 224.28125 315.183594 C 224.519531 316.386719 224.699219 317.601562 224.820312 318.824219 C 224.941406 320.046875 225 321.273438 225 322.5 C 225 323.726562 224.941406 324.953125 224.820312 326.175781 C 224.699219 327.398438 224.519531 328.609375 224.28125 329.816406 C 224.039062 331.019531 223.742188 332.210938 223.386719 333.386719 C 223.027344 334.5625 222.617188 335.714844 222.144531 336.851562 C 221.675781 337.984375 221.152344 339.09375 220.570312 340.175781 C 219.992188 341.261719 219.363281 342.3125 218.679688 343.332031 C 217.996094 344.355469 217.265625 345.339844 216.488281 346.289062 C 215.707031 347.238281 214.886719 348.148438 214.015625 349.015625 C 213.148438 349.886719 212.238281 350.707031 211.289062 351.488281 C 210.339844 352.265625 209.355469 352.996094 208.332031 353.679688 C 207.3125 354.363281 206.261719 354.992188 205.175781 355.570312 C 204.09375 356.152344 202.984375 356.675781 201.851562 357.144531 C 200.714844 357.617188 199.5625 358.027344 198.386719 358.386719 C 197.210938 358.742188 196.019531 359.039062 194.816406 359.28125 C 193.609375 359.519531 192.398438 359.699219 191.175781 359.820312 C 189.953125 359.941406 188.726562 360 187.5 360 Z M 300 315 L 239.234375 315 C 239.019531 313.453125 238.738281 311.921875 238.386719 310.398438 C 238.035156 308.878906 237.613281 307.378906 237.128906 305.894531 C 236.640625 304.410156 236.089844 302.953125 235.472656 301.519531 C 234.855469 300.085938 234.175781 298.683594 233.433594 297.308594 C 232.691406 295.9375 231.886719 294.601562 231.023438 293.300781 C 230.164062 292 229.242188 290.738281 228.269531 289.519531 C 227.292969 288.300781 226.265625 287.128906 225.183594 286.003906 C 224.101562 284.878906 222.972656 283.800781 221.796875 282.777344 C 220.621094 281.75 219.398438 280.78125 218.136719 279.867188 C 216.871094 278.949219 215.570312 278.09375 214.230469 277.292969 C 212.886719 276.496094 211.515625 275.757812 210.105469 275.082031 C 208.699219 274.40625 207.265625 273.792969 205.804688 273.246094 C 204.34375 272.699219 202.859375 272.21875 201.355469 271.804688 C 199.851562 271.390625 198.328125 271.042969 196.792969 270.765625 C 195.257812 270.488281 193.710938 270.277344 192.15625 270.140625 C 190.601562 270 189.046875 269.929688 187.484375 269.929688 C 185.925781 269.929688 184.367188 270 182.8125 270.140625 C 181.257812 270.277344 179.710938 270.488281 178.175781 270.765625 C 176.640625 271.042969 175.121094 271.390625 173.617188 271.804688 C 172.109375 272.21875 170.628906 272.699219 169.164062 273.246094 C 167.703125 273.792969 166.269531 274.40625 164.863281 275.082031 C 163.457031 275.757812 162.082031 276.496094 160.742188 277.292969 C 159.398438 278.09375 158.097656 278.949219 156.835938 279.867188 C 155.570312 280.78125 154.347656 281.75 153.171875 282.777344 C 151.996094 283.800781 150.867188 284.878906 149.785156 286.003906 C 148.707031 287.128906 147.675781 288.300781 146.703125 289.519531 C 145.726562 290.738281 144.808594 292 143.945312 293.300781 C 143.082031 294.601562 142.28125 295.9375 141.535156 297.308594 C 140.792969 298.683594 140.113281 300.085938 139.496094 301.519531 C 138.878906 302.953125 138.328125 304.410156 137.839844 305.894531 C 137.355469 307.378906 136.9375 308.878906 136.585938 310.398438 C 136.230469 311.921875 135.949219 313.453125 135.734375 315 L 75 315 L 75 255 L 127.5 255 C 127.992188 255 128.480469 254.953125 128.964844 254.855469 C 129.445312 254.757812 129.914062 254.617188 130.371094 254.429688 C 130.824219 254.242188 131.257812 254.007812 131.667969 253.734375 C 132.078125 253.460938 132.453125 253.152344 132.804688 252.804688 C 133.152344 252.453125 133.460938 252.078125 133.734375 251.667969 C 134.007812 251.257812 134.242188 250.824219 134.429688 250.371094 C 134.617188 249.914062 134.761719 249.445312 134.855469 248.964844 C 134.953125 248.480469 135 247.992188 135 247.5 L 135 187.5 C 135 187.007812 134.953125 186.519531 134.855469 186.035156 C 134.761719 185.554688 134.617188 185.085938 134.429688 184.628906 C 134.242188 184.175781 134.007812 183.742188 133.734375 183.332031 C 133.460938 182.921875 133.152344 182.542969 132.804688 182.195312 C 132.453125 181.847656 132.078125 181.539062 131.667969 181.265625 C 131.257812 180.992188 130.824219 180.757812 130.371094 180.570312 C 129.914062 180.382812 129.445312 180.238281 128.964844 180.144531 C 128.480469 180.046875 127.992188 180 127.5 180 L 75 180 L 75 150 L 125.730469 150 L 184.140625 179.203125 C 185.199219 179.734375 186.316406 180 187.5 180 C 188.683594 180 189.800781 179.734375 190.859375 179.203125 L 249.269531 150 L 300 150 L 300 180 L 247.5 180 C 247.007812 180 246.519531 180.046875 246.035156 180.144531 C 245.554688 180.238281 245.085938 180.382812 244.628906 180.570312 C 244.175781 180.757812 243.742188 180.992188 243.332031 181.265625 C 242.921875 181.539062 242.542969 181.847656 242.195312 182.195312 C 241.847656 182.542969 241.539062 182.921875 241.265625 183.332031 C 240.992188 183.742188 240.757812 184.175781 240.570312 184.628906 C 240.382812 185.085938 240.238281 185.554688 240.144531 186.035156 C 240.046875 186.519531 240 187.007812 240 187.5 L 240 247.5 C 240 247.992188 240.046875 248.480469 240.144531 248.964844 C 240.238281 249.445312 240.382812 249.914062 240.570312 250.371094 C 240.757812 250.824219 240.992188 251.257812 241.265625 251.667969 C 241.539062 252.078125 241.847656 252.453125 242.195312 252.804688 C 242.542969 253.152344 242.921875 253.460938 243.332031 253.734375 C 243.742188 254.007812 244.175781 254.242188 244.628906 254.429688 C 245.085938 254.617188 245.554688 254.757812 246.035156 254.855469 C 246.519531 254.953125 247.007812 255 247.5 255 L 300 255 Z M 360 240 L 255 240 L 255 195 L 360 195 Z M 360 240 " fill-opacity="1" fill-rule="nonzero"/></svg>