<svg xmlns="http://www.w3.org/2000/svg" xmlns:xlink="http://www.w3.org/1999/xlink" width="500" zoomAndPan="magnify" viewBox="0 0 375 374.999991" height="500" preserveAspectRatio="xMidYMid meet" version="1.0"><rect x="-37.5" width="450" fill="#ffffff" y="-37.499999" height="449.999989" fill-opacity="1"/><rect x="-37.5" width="450" fill="#ffffff" y="-37.499999" height="449.999989" fill-opacity="1"/><rect x="-37.5" width="450" fill="#ffffff" y="-37.499999" height="449.999989" fill-opacity="1"/><path fill="#000000" d="M 191.667969 156.457031 L 277.605469 156.457031 L 277.605469 174.0625 L 191.667969 174.0625 Z M 191.667969 156.457031 " fill-opacity="1" fill-rule="nonzero"/><path fill="#000000" d="M 187.5 0 C 184.429688 0 181.363281 0.0742188 178.300781 0.226562 C 175.234375 0.375 172.175781 0.601562 169.121094 0.902344 C 166.066406 1.203125 163.023438 1.578125 159.988281 2.03125 C 156.953125 2.480469 153.929688 3.003906 150.921875 3.601562 C 147.910156 4.203125 144.917969 4.875 141.941406 5.617188 C 138.964844 6.363281 136.007812 7.183594 133.070312 8.074219 C 130.136719 8.964844 127.222656 9.925781 124.332031 10.960938 C 121.445312 11.996094 118.582031 13.097656 115.746094 14.273438 C 112.910156 15.445312 110.105469 16.691406 107.332031 18.003906 C 104.558594 19.3125 101.820312 20.691406 99.113281 22.140625 C 96.40625 23.585938 93.738281 25.097656 91.105469 26.675781 C 88.472656 28.253906 85.882812 29.894531 83.332031 31.597656 C 80.777344 33.304688 78.269531 35.070312 75.804688 36.898438 C 73.339844 38.726562 70.921875 40.613281 68.550781 42.558594 C 66.179688 44.507812 63.855469 46.511719 61.582031 48.570312 C 59.308594 50.632812 57.085938 52.746094 54.917969 54.917969 C 52.746094 57.085938 50.632812 59.308594 48.570312 61.582031 C 46.511719 63.855469 44.507812 66.179688 42.558594 68.550781 C 40.613281 70.921875 38.726562 73.339844 36.898438 75.804688 C 35.070312 78.269531 33.304688 80.777344 31.597656 83.332031 C 29.894531 85.882812 28.253906 88.472656 26.675781 91.105469 C 25.097656 93.738281 23.585938 96.40625 22.140625 99.113281 C 20.691406 101.820312 19.3125 104.558594 18.003906 107.332031 C 16.691406 110.105469 15.445312 112.910156 14.273438 115.746094 C 13.097656 118.582031 11.996094 121.445312 10.960938 124.332031 C 9.925781 127.222656 8.964844 130.136719 8.074219 133.070312 C 7.183594 136.007812 6.363281 138.964844 5.621094 141.941406 C 4.875 144.917969 4.203125 147.910156 3.601562 150.921875 C 3.003906 153.929688 2.480469 156.953125 2.03125 159.988281 C 1.578125 163.023438 1.203125 166.066406 0.902344 169.121094 C 0.601562 172.175781 0.375 175.234375 0.226562 178.300781 C 0.0742188 181.363281 0 184.429688 0 187.5 C 0 190.570312 0.0742188 193.636719 0.226562 196.699219 C 0.375 199.765625 0.601562 202.824219 0.902344 205.878906 C 1.203125 208.933594 1.578125 211.976562 2.03125 215.011719 C 2.480469 218.046875 3.003906 221.070312 3.601562 224.078125 C 4.203125 227.089844 4.875 230.082031 5.621094 233.058594 C 6.363281 236.035156 7.183594 238.992188 8.074219 241.929688 C 8.964844 244.863281 9.925781 247.777344 10.960938 250.667969 C 11.996094 253.554688 13.097656 256.417969 14.273438 259.253906 C 15.445312 262.089844 16.691406 264.894531 18.003906 267.667969 C 19.3125 270.441406 20.691406 273.179688 22.140625 275.886719 C 23.585938 278.59375 25.097656 281.261719 26.675781 283.894531 C 28.253906 286.527344 29.894531 289.117188 31.597656 291.667969 C 33.304688 294.222656 35.070312 296.730469 36.898438 299.195312 C 38.726562 301.660156 40.613281 304.078125 42.558594 306.449219 C 44.507812 308.820312 46.511719 311.144531 48.570312 313.417969 C 50.632812 315.691406 52.746094 317.914062 54.917969 320.082031 C 57.085938 322.253906 59.308594 324.367188 61.582031 326.429688 C 63.855469 328.488281 66.179688 330.492188 68.550781 332.4375 C 70.921875 334.386719 73.339844 336.273438 75.804688 338.101562 C 78.269531 339.929688 80.777344 341.695312 83.332031 343.402344 C 85.882812 345.105469 88.472656 346.746094 91.105469 348.324219 C 93.738281 349.902344 96.40625 351.414062 99.113281 352.859375 C 101.820312 354.308594 104.558594 355.6875 107.332031 356.996094 C 110.105469 358.308594 112.910156 359.554688 115.746094 360.726562 C 118.582031 361.902344 121.445312 363.003906 124.332031 364.039062 C 127.222656 365.074219 130.136719 366.035156 133.070312 366.925781 C 136.007812 367.816406 138.964844 368.636719 141.941406 369.378906 C 144.917969 370.125 147.910156 370.796875 150.921875 371.398438 C 153.929688 371.996094 156.953125 372.519531 159.988281 372.96875 C 163.023438 373.421875 166.066406 373.796875 169.121094 374.097656 C 172.175781 374.398438 175.234375 374.625 178.300781 374.773438 C 181.363281 374.925781 184.429688 375 187.5 375 C 190.570312 375 193.636719 374.925781 196.699219 374.773438 C 199.765625 374.625 202.824219 374.398438 205.878906 374.097656 C 208.933594 373.796875 211.976562 373.421875 215.011719 372.96875 C 218.046875 372.519531 221.070312 371.996094 224.078125 371.398438 C 227.089844 370.796875 230.082031 370.125 233.058594 369.378906 C 236.035156 368.636719 238.992188 367.816406 241.929688 366.925781 C 244.863281 366.035156 247.777344 365.074219 250.667969 364.039062 C 253.554688 363.003906 256.417969 361.902344 259.253906 360.726562 C 262.089844 359.554688 264.894531 358.308594 267.667969 356.996094 C 270.441406 355.6875 273.179688 354.308594 275.886719 352.859375 C 278.59375 351.414062 281.261719 349.902344 283.894531 348.324219 C 286.527344 346.746094 289.117188 345.105469 291.667969 343.402344 C 294.222656 341.695312 296.730469 339.929688 299.195312 338.101562 C 301.660156 336.273438 304.078125 334.386719 306.449219 332.4375 C 308.820312 330.492188 311.144531 328.488281 313.417969 326.429688 C 315.691406 324.367188 317.914062 322.253906 320.082031 320.082031 C 322.253906 317.914062 324.367188 315.691406 326.429688 313.417969 C 328.488281 311.144531 330.492188 308.820312 332.4375 306.449219 C 334.386719 304.078125 336.273438 301.660156 338.101562 299.195312 C 339.929688 296.730469 341.695312 294.222656 343.402344 291.667969 C 345.105469 289.117188 346.746094 286.527344 348.324219 283.894531 C 349.902344 281.261719 351.414062 278.59375 352.859375 275.886719 C 354.308594 273.179688 355.6875 270.441406 356.996094 267.667969 C 358.308594 264.894531 359.554688 262.089844 360.726562 259.253906 C 361.902344 256.417969 363.003906 253.554688 364.039062 250.667969 C 365.074219 247.777344 366.035156 244.863281 366.925781 241.929688 C 367.816406 238.992188 368.636719 236.035156 369.378906 233.058594 C 370.125 230.082031 370.796875 227.089844 371.398438 224.078125 C 371.996094 221.070312 372.519531 218.046875 372.96875 215.011719 C 373.421875 211.976562 373.796875 208.933594 374.097656 205.878906 C 374.398438 202.824219 374.625 199.765625 374.773438 196.699219 C 374.925781 193.636719 375 190.570312 375 187.5 C 375 184.429688 374.925781 181.363281 374.773438 178.300781 C 374.625 175.234375 374.398438 172.175781 374.097656 169.121094 C 373.796875 166.066406 373.421875 163.023438 372.96875 159.988281 C 372.519531 156.953125 371.996094 153.929688 371.398438 150.921875 C 370.796875 147.910156 370.125 144.917969 369.378906 141.941406 C 368.636719 138.964844 367.816406 136.007812 366.925781 133.070312 C 366.035156 130.136719 365.074219 127.222656 364.039062 124.332031 C 363.003906 121.445312 361.902344 118.582031 360.726562 115.746094 C 359.554688 112.910156 358.308594 110.105469 356.996094 107.332031 C 355.6875 104.558594 354.308594 101.820312 352.859375 99.113281 C 351.414062 96.40625 349.902344 93.738281 348.324219 91.105469 C 346.746094 88.472656 345.105469 85.882812 343.402344 83.332031 C 341.695312 80.777344 339.929688 78.269531 338.101562 75.804688 C 336.273438 73.339844 334.386719 70.921875 332.4375 68.550781 C 330.492188 66.179688 328.488281 63.855469 326.429688 61.582031 C 324.367188 59.308594 322.253906 57.085938 320.082031 54.917969 C 317.914062 52.746094 315.691406 50.632812 313.417969 48.570312 C 311.144531 46.511719 308.820312 44.507812 306.449219 42.558594 C 304.078125 40.613281 301.660156 38.726562 299.195312 36.898438 C 296.730469 35.070312 294.222656 33.304688 291.667969 31.597656 C 289.117188 29.894531 286.527344 28.253906 283.894531 26.675781 C 281.261719 25.097656 278.59375 23.585938 275.886719 22.140625 C 273.179688 20.691406 270.441406 19.3125 267.667969 18.003906 C 264.894531 16.691406 262.089844 15.445312 259.253906 14.273438 C 256.417969 13.097656 253.554688 11.996094 250.667969 10.960938 C 247.777344 9.925781 244.863281 8.964844 241.929688 8.074219 C 238.992188 7.183594 236.035156 6.363281 233.058594 5.617188 C 230.082031 4.875 227.089844 4.203125 224.078125 3.601562 C 221.070312 3.003906 218.046875 2.480469 215.011719 2.03125 C 211.976562 1.578125 208.933594 1.203125 205.878906 0.902344 C 202.824219 0.601562 199.765625 0.375 196.699219 0.226562 C 193.636719 0.0742188 190.570312 0 187.5 0 Z M 90.355469 197.625 C 90.554688 197.4375 90.769531 197.269531 91 197.125 C 91.230469 196.976562 91.476562 196.855469 91.730469 196.757812 C 91.988281 196.660156 92.25 196.589844 92.519531 196.542969 C 92.789062 196.496094 93.0625 196.476562 93.335938 196.484375 C 93.609375 196.492188 93.882812 196.527344 94.148438 196.589844 C 94.414062 196.648438 94.671875 196.738281 94.921875 196.847656 C 95.171875 196.960938 95.410156 197.097656 95.632812 197.253906 C 95.855469 197.414062 96.0625 197.59375 96.25 197.792969 L 118.542969 221.394531 L 118.542969 94.3125 C 118.542969 94.039062 118.566406 93.769531 118.621094 93.5 C 118.675781 93.230469 118.753906 92.972656 118.859375 92.71875 C 118.964844 92.464844 119.09375 92.226562 119.242188 91.996094 C 119.394531 91.769531 119.570312 91.558594 119.761719 91.367188 C 119.957031 91.171875 120.164062 91 120.394531 90.847656 C 120.621094 90.695312 120.859375 90.566406 121.113281 90.464844 C 121.367188 90.359375 121.628906 90.277344 121.894531 90.226562 C 122.164062 90.171875 122.433594 90.144531 122.707031 90.144531 C 122.980469 90.144531 123.253906 90.171875 123.519531 90.226562 C 123.789062 90.277344 124.050781 90.359375 124.304688 90.464844 C 124.554688 90.566406 124.796875 90.695312 125.023438 90.847656 C 125.25 91 125.460938 91.171875 125.65625 91.367188 C 125.847656 91.558594 126.019531 91.769531 126.171875 91.996094 C 126.324219 92.226562 126.453125 92.464844 126.558594 92.71875 C 126.664062 92.972656 126.742188 93.230469 126.792969 93.5 C 126.847656 93.769531 126.875 94.039062 126.875 94.3125 L 126.875 222.3125 L 153.519531 197.582031 C 153.71875 197.386719 153.933594 197.210938 154.167969 197.058594 C 154.402344 196.90625 154.648438 196.777344 154.90625 196.675781 C 155.167969 196.570312 155.433594 196.492188 155.710938 196.445312 C 155.984375 196.394531 156.261719 196.371094 156.539062 196.378906 C 156.820312 196.382812 157.09375 196.417969 157.367188 196.480469 C 157.640625 196.539062 157.902344 196.628906 158.160156 196.742188 C 158.414062 196.855469 158.652344 196.996094 158.882812 197.15625 C 159.109375 197.320312 159.316406 197.503906 159.507812 197.710938 C 159.695312 197.914062 159.863281 198.136719 160.007812 198.375 C 160.15625 198.613281 160.273438 198.863281 160.371094 199.125 C 160.464844 199.386719 160.535156 199.65625 160.574219 199.933594 C 160.617188 200.210938 160.628906 200.488281 160.613281 200.765625 C 160.597656 201.042969 160.554688 201.320312 160.484375 201.589844 C 160.414062 201.859375 160.320312 202.121094 160.195312 202.371094 C 160.074219 202.621094 159.929688 202.859375 159.757812 203.082031 C 159.589844 203.300781 159.398438 203.503906 159.1875 203.6875 L 125.542969 234.9375 C 125.464844 235.007812 125.378906 235.070312 125.292969 235.125 C 125.199219 235.226562 125.101562 235.324219 125 235.417969 L 124.605469 235.625 L 124.292969 235.792969 L 123.832031 235.9375 L 123.519531 235.9375 C 123.257812 235.960938 122.992188 235.960938 122.730469 235.9375 C 122.453125 235.957031 122.171875 235.957031 121.894531 235.9375 C 121.351562 235.808594 120.84375 235.59375 120.375 235.292969 L 120.207031 235.144531 L 119.75 234.75 L 90.25 203.5 C 90.0625 203.304688 89.894531 203.089844 89.746094 202.859375 C 89.597656 202.632812 89.476562 202.390625 89.375 202.136719 C 89.277344 201.882812 89.203125 201.621094 89.15625 201.351562 C 89.105469 201.085938 89.085938 200.8125 89.089844 200.539062 C 89.09375 200.269531 89.125 200 89.183594 199.734375 C 89.242188 199.464844 89.324219 199.207031 89.433594 198.957031 C 89.542969 198.707031 89.671875 198.46875 89.828125 198.246094 C 89.984375 198.023438 90.160156 197.816406 90.355469 197.625 Z M 285.9375 282.875 C 285.9375 283.148438 285.910156 283.417969 285.855469 283.6875 C 285.804688 283.957031 285.726562 284.214844 285.621094 284.46875 C 285.515625 284.722656 285.386719 284.960938 285.234375 285.191406 C 285.082031 285.417969 284.910156 285.628906 284.71875 285.820312 C 284.523438 286.015625 284.3125 286.1875 284.085938 286.339844 C 283.859375 286.492188 283.617188 286.621094 283.367188 286.722656 C 283.113281 286.828125 282.851562 286.90625 282.582031 286.960938 C 282.316406 287.015625 282.042969 287.042969 281.769531 287.042969 L 93.230469 287.042969 C 92.957031 287.042969 92.683594 287.015625 92.417969 286.960938 C 92.148438 286.90625 91.886719 286.828125 91.632812 286.722656 C 91.382812 286.621094 91.140625 286.492188 90.914062 286.339844 C 90.6875 286.1875 90.476562 286.015625 90.28125 285.820312 C 90.089844 285.628906 89.917969 285.417969 89.765625 285.191406 C 89.613281 284.960938 89.484375 284.722656 89.378906 284.46875 C 89.273438 284.214844 89.195312 283.957031 89.140625 283.6875 C 89.089844 283.417969 89.0625 283.148438 89.0625 282.875 L 89.0625 256.9375 C 89.0625 256.664062 89.089844 256.394531 89.140625 256.125 C 89.195312 255.855469 89.273438 255.597656 89.378906 255.34375 C 89.484375 255.089844 89.613281 254.851562 89.765625 254.621094 C 89.917969 254.394531 90.089844 254.183594 90.28125 253.992188 C 90.476562 253.796875 90.6875 253.625 90.914062 253.472656 C 91.140625 253.320312 91.382812 253.191406 91.632812 253.089844 C 91.886719 252.984375 92.148438 252.902344 92.417969 252.851562 C 92.683594 252.796875 92.957031 252.769531 93.230469 252.769531 L 281.769531 252.769531 C 282.042969 252.769531 282.316406 252.796875 282.582031 252.851562 C 282.851562 252.902344 283.113281 252.984375 283.367188 253.089844 C 283.617188 253.191406 283.859375 253.320312 284.085938 253.472656 C 284.3125 253.625 284.523438 253.796875 284.71875 253.992188 C 284.910156 254.183594 285.082031 254.394531 285.234375 254.621094 C 285.386719 254.851562 285.515625 255.089844 285.621094 255.34375 C 285.726562 255.597656 285.804688 255.855469 285.855469 256.125 C 285.910156 256.394531 285.9375 256.664062 285.9375 256.9375 Z M 285.9375 236.1875 C 285.9375 236.460938 285.910156 236.730469 285.855469 237 C 285.804688 237.269531 285.726562 237.527344 285.621094 237.78125 C 285.515625 238.035156 285.386719 238.273438 285.234375 238.503906 C 285.082031 238.730469 284.910156 238.941406 284.71875 239.132812 C 284.523438 239.328125 284.3125 239.5 284.085938 239.652344 C 283.859375 239.804688 283.617188 239.933594 283.367188 240.035156 C 283.113281 240.140625 282.851562 240.21875 282.582031 240.273438 C 282.316406 240.328125 282.042969 240.355469 281.769531 240.355469 L 187.5 240.355469 C 187.226562 240.355469 186.957031 240.328125 186.6875 240.273438 C 186.417969 240.21875 186.160156 240.140625 185.90625 240.035156 C 185.652344 239.933594 185.414062 239.804688 185.183594 239.652344 C 184.957031 239.5 184.746094 239.328125 184.554688 239.132812 C 184.359375 238.941406 184.1875 238.730469 184.035156 238.503906 C 183.882812 238.273438 183.753906 238.035156 183.652344 237.78125 C 183.546875 237.527344 183.464844 237.269531 183.414062 237 C 183.359375 236.730469 183.332031 236.460938 183.332031 236.1875 L 183.332031 210.25 C 183.332031 209.976562 183.359375 209.707031 183.414062 209.4375 C 183.464844 209.167969 183.546875 208.910156 183.652344 208.65625 C 183.753906 208.402344 183.882812 208.164062 184.035156 207.933594 C 184.1875 207.707031 184.359375 207.496094 184.554688 207.304688 C 184.746094 207.109375 184.957031 206.9375 185.183594 206.785156 C 185.414062 206.632812 185.652344 206.503906 185.90625 206.402344 C 186.160156 206.296875 186.417969 206.214844 186.6875 206.164062 C 186.957031 206.109375 187.226562 206.082031 187.5 206.082031 L 281.769531 206.082031 C 282.042969 206.082031 282.316406 206.109375 282.582031 206.164062 C 282.851562 206.214844 283.113281 206.296875 283.367188 206.402344 C 283.617188 206.503906 283.859375 206.632812 284.085938 206.785156 C 284.3125 206.9375 284.523438 207.109375 284.71875 207.304688 C 284.910156 207.496094 285.082031 207.707031 285.234375 207.933594 C 285.386719 208.164062 285.515625 208.402344 285.621094 208.65625 C 285.726562 208.910156 285.804688 209.167969 285.855469 209.4375 C 285.910156 209.707031 285.9375 209.976562 285.9375 210.25 Z M 285.9375 178.230469 C 285.9375 178.503906 285.910156 178.773438 285.855469 179.042969 C 285.804688 179.308594 285.726562 179.570312 285.621094 179.824219 C 285.515625 180.078125 285.386719 180.316406 285.234375 180.542969 C 285.082031 180.769531 284.910156 180.980469 284.71875 181.175781 C 284.523438 181.367188 284.3125 181.542969 284.085938 181.695312 C 283.859375 181.84375 283.617188 181.972656 283.367188 182.078125 C 283.113281 182.183594 282.851562 182.261719 282.582031 182.316406 C 282.316406 182.367188 282.042969 182.394531 281.769531 182.394531 L 187.5 182.394531 C 187.226562 182.394531 186.957031 182.367188 186.6875 182.316406 C 186.417969 182.261719 186.160156 182.183594 185.90625 182.078125 C 185.652344 181.972656 185.414062 181.84375 185.183594 181.695312 C 184.957031 181.542969 184.746094 181.367188 184.554688 181.175781 C 184.359375 180.980469 184.1875 180.769531 184.035156 180.542969 C 183.882812 180.316406 183.753906 180.078125 183.652344 179.824219 C 183.546875 179.570312 183.464844 179.308594 183.414062 179.042969 C 183.359375 178.773438 183.332031 178.503906 183.332031 178.230469 L 183.332031 152.292969 C 183.332031 152.019531 183.359375 151.746094 183.414062 151.480469 C 183.464844 151.210938 183.546875 150.949219 183.652344 150.695312 C 183.753906 150.445312 183.882812 150.203125 184.035156 149.976562 C 184.1875 149.75 184.359375 149.539062 184.554688 149.34375 C 184.746094 149.152344 184.957031 148.980469 185.183594 148.828125 C 185.414062 148.675781 185.652344 148.546875 185.90625 148.441406 C 186.160156 148.335938 186.417969 148.257812 186.6875 148.203125 C 186.957031 148.152344 187.226562 148.125 187.5 148.125 L 281.769531 148.125 C 282.042969 148.125 282.316406 148.152344 282.582031 148.203125 C 282.851562 148.257812 283.113281 148.335938 283.367188 148.441406 C 283.617188 148.546875 283.859375 148.675781 284.085938 148.828125 C 284.3125 148.980469 284.523438 149.152344 284.71875 149.34375 C 284.910156 149.539062 285.082031 149.75 285.234375 149.976562 C 285.386719 150.203125 285.515625 150.445312 285.621094 150.695312 C 285.726562 150.949219 285.804688 151.210938 285.855469 151.480469 C 285.910156 151.746094 285.9375 152.019531 285.9375 152.292969 Z M 285.9375 120.269531 C 285.9375 120.542969 285.910156 120.816406 285.855469 121.082031 C 285.804688 121.351562 285.726562 121.613281 285.621094 121.867188 C 285.515625 122.117188 285.386719 122.359375 285.234375 122.585938 C 285.082031 122.8125 284.910156 123.023438 284.71875 123.21875 C 284.523438 123.410156 284.3125 123.582031 284.085938 123.734375 C 283.859375 123.886719 283.617188 124.015625 283.367188 124.121094 C 283.113281 124.226562 282.851562 124.304688 282.582031 124.355469 C 282.316406 124.410156 282.042969 124.4375 281.769531 124.4375 L 187.5 124.4375 C 187.226562 124.4375 186.957031 124.410156 186.6875 124.355469 C 186.417969 124.304688 186.160156 124.226562 185.90625 124.121094 C 185.652344 124.015625 185.414062 123.886719 185.183594 123.734375 C 184.957031 123.582031 184.746094 123.410156 184.554688 123.21875 C 184.359375 123.023438 184.1875 122.8125 184.035156 122.585938 C 183.882812 122.359375 183.753906 122.117188 183.652344 121.867188 C 183.546875 121.613281 183.464844 121.351562 183.414062 121.082031 C 183.359375 120.816406 183.332031 120.542969 183.332031 120.269531 L 183.332031 94.332031 C 183.332031 94.058594 183.359375 93.789062 183.414062 93.519531 C 183.464844 93.253906 183.546875 92.992188 183.652344 92.738281 C 183.753906 92.484375 183.882812 92.246094 184.035156 92.019531 C 184.1875 91.789062 184.359375 91.582031 184.554688 91.386719 C 184.746094 91.195312 184.957031 91.019531 185.183594 90.867188 C 185.414062 90.71875 185.652344 90.589844 185.90625 90.484375 C 186.160156 90.378906 186.417969 90.300781 186.6875 90.246094 C 186.957031 90.191406 187.226562 90.167969 187.5 90.167969 L 281.769531 90.167969 C 282.042969 90.167969 282.316406 90.191406 282.582031 90.246094 C 282.851562 90.300781 283.113281 90.378906 283.367188 90.484375 C 283.617188 90.589844 283.859375 90.71875 284.085938 90.867188 C 284.3125 91.019531 284.523438 91.195312 284.71875 91.386719 C 284.910156 91.582031 285.082031 91.789062 285.234375 92.019531 C 285.386719 92.246094 285.515625 92.484375 285.621094 92.738281 C 285.726562 92.992188 285.804688 93.253906 285.855469 93.519531 C 285.910156 93.789062 285.9375 94.058594 285.9375 94.332031 Z M 285.9375 120.269531 " fill-opacity="1" fill-rule="nonzero"/><path fill="#000000" d="M 191.667969 98.5 L 277.605469 98.5 L 277.605469 116.105469 L 191.667969 116.105469 Z M 191.667969 98.5 " fill-opacity="1" fill-rule="nonzero"/><path fill="#000000" d="M 191.667969 214.417969 L 277.605469 214.417969 L 277.605469 232.019531 L 191.667969 232.019531 Z M 191.667969 214.417969 " fill-opacity="1" fill-rule="nonzero"/><path fill="#000000" d="M 97.394531 261.105469 L 277.625 261.105469 L 277.625 278.707031 L 97.394531 278.707031 Z M 97.394531 261.105469 " fill-opacity="1" fill-rule="nonzero"/></svg>